M48
; DRILL file {KiCad (7.0.0)} date Tue Feb 27 19:35:33 2024
; FORMAT={-:-/ absolute / inch / decimal}
; #@! TF.CreationDate,2024-02-27T19:35:33+01:00
; #@! TF.GenerationSoftware,Kicad,Pcbnew,(7.0.0)
; #@! TF.FileFunction,Plated,1,2,PTH
FMAT,2
INCH
; #@! TA.AperFunction,Plated,PTH,ComponentDrill
T1C0.0315
; #@! TA.AperFunction,Plated,PTH,ComponentDrill
T2C0.0320
; #@! TA.AperFunction,Plated,PTH,ComponentDrill
T3C0.0394
; #@! TA.AperFunction,Plated,PTH,ComponentDrill
T4C0.0600
; #@! TA.AperFunction,Plated,PTH,ComponentDrill
T5C0.1200
%
G90
G05
T1
X3.5652Y-2.3588
X3.5652Y-2.5162
X7.75Y-2.4525
X7.75Y-2.61
T2
X1.75Y-1.2569
X1.75Y-1.4931
X1.8438Y-3.5069
X1.8438Y-3.7431
X1.9375Y-1.8194
X1.9375Y-2.0556
X2.125Y-2.8194
X2.125Y-3.0556
X2.5Y-1.2569
X2.5Y-1.4931
X2.6875Y-1.8194
X2.6875Y-2.0556
X3.0381Y-3.125
X3.125Y-3.7256
X3.125Y-3.9619
X3.25Y-1.2569
X3.25Y-1.4931
X3.2744Y-3.125
X3.4375Y-1.8194
X3.4375Y-2.0556
X3.8125Y-2.8194
X3.8125Y-3.0556
X4.0Y-1.2569
X4.0Y-1.4931
X4.0Y-2.0069
X4.0Y-2.2431
X4.3194Y-3.875
X4.375Y-2.7569
X4.375Y-2.9931
X4.5556Y-3.875
X4.75Y-1.2569
X4.75Y-1.4931
X4.75Y-2.0069
X4.75Y-2.2431
X5.125Y-2.7569
X5.125Y-2.9931
X5.4869Y-3.875
X5.5Y-1.2569
X5.5Y-1.4931
X5.5Y-2.0069
X5.5Y-2.2431
X5.7231Y-3.875
X5.875Y-2.7569
X5.875Y-2.9931
X6.25Y-1.2569
X6.25Y-1.4931
X6.25Y-2.0069
X6.25Y-2.2431
X6.625Y-2.7569
X6.625Y-2.9931
X6.625Y-3.7256
X6.625Y-3.9619
X7.0Y-1.2569
X7.0Y-1.4931
X7.0Y-2.0069
X7.0Y-2.2431
X7.375Y-2.7569
X7.375Y-2.9931
X7.4688Y-3.6319
X7.4688Y-3.8681
X7.75Y-1.2569
X7.75Y-1.4931
X7.75Y-2.0069
X7.75Y-2.2431
X8.1944Y-1.7188
X8.4062Y-3.1319
X8.4062Y-3.3681
X8.4306Y-1.7188
X8.5Y-1.2569
X8.5Y-1.4931
T3
X8.0373Y-2.1815
X8.0373Y-2.8815
X8.1373Y-2.1815
X8.1373Y-2.8815
X8.2373Y-2.1815
X8.2373Y-2.8815
X8.3373Y-2.1815
X8.3373Y-2.8815
X8.4373Y-2.8815
X8.5373Y-2.8815
X8.6373Y-2.8815
T4
X1.475Y-1.2125
X1.475Y-1.9625
X1.5687Y-3.4625
X1.7125Y-3.0125
X1.725Y-1.1125
X1.725Y-1.8625
X1.8187Y-3.3625
X1.9625Y-2.9125
X2.225Y-1.2125
X2.225Y-1.9625
X2.475Y-1.1125
X2.475Y-1.8625
X2.6Y-3.65
X2.65Y-3.0125
X2.6938Y-3.65
X2.85Y-3.55
X2.9Y-2.9125
X2.9438Y-3.55
X2.975Y-1.2125
X2.975Y-1.9625
X3.225Y-1.1125
X3.225Y-1.8625
X3.35Y-3.65
X3.4Y-3.0125
X3.6Y-3.55
X3.65Y-2.9125
X3.725Y-1.2125
X3.725Y-1.9625
X3.8188Y-3.65
X3.975Y-1.1125
X3.975Y-1.8625
X4.0062Y-3.65
X4.0687Y-3.55
X4.1Y-2.7125
X4.1Y-3.65
X4.2562Y-3.55
X4.35Y-2.6125
X4.35Y-3.55
X4.475Y-1.2125
X4.475Y-1.9625
X4.725Y-1.1125
X4.725Y-1.8625
X4.85Y-2.7125
X4.85Y-3.65
X5.1Y-2.6125
X5.1Y-3.55
X5.225Y-1.2125
X5.225Y-1.9625
X5.225Y-3.65
X5.475Y-1.1125
X5.475Y-1.8625
X5.475Y-3.55
X5.6Y-2.7125
X5.6937Y-3.65
X5.85Y-2.6125
X5.8812Y-3.65
X5.9437Y-3.55
X5.975Y-1.2125
X5.975Y-1.9625
X6.1312Y-3.55
X6.225Y-1.1125
X6.225Y-1.8625
X6.35Y-2.7125
X6.35Y-3.65
X6.6Y-2.6125
X6.6Y-3.55
X6.725Y-1.2125
X6.725Y-1.9625
X6.975Y-1.1125
X6.975Y-1.8625
X7.0062Y-3.65
X7.1Y-2.7125
X7.2562Y-3.55
X7.35Y-2.6125
X7.475Y-1.2125
X7.475Y-1.9625
X7.725Y-1.1125
X7.725Y-1.8625
X8.1312Y-3.0875
X8.225Y-1.2125
X8.225Y-1.9625
X8.3812Y-2.9875
X8.475Y-1.1125
X8.475Y-1.8625
T5
X2.75Y-4.025
X2.75Y-4.025
X3.5Y-4.025
X3.5Y-4.025
X3.6875Y-4.025
X4.25Y-4.025
X4.625Y-4.025
X5.0Y-4.025
X5.375Y-4.025
X5.75Y-4.025
X6.3125Y-4.025
X7.25Y-4.025
X7.25Y-4.025
X7.25Y-4.025
T3
G00X7.9371Y-2.3065
M15
G01X7.9174Y-2.3065
M16
G05
G00X7.9371Y-2.3815
M15
G01X7.9174Y-2.3815
M16
G05
T0
M30
