M48
; DRILL file {KiCad 8.0.8} date 2025-03-15T17:26:37+0100
; FORMAT={-:-/ absolute / inch / decimal}
; #@! TF.CreationDate,2025-03-15T17:26:37+01:00
; #@! TF.GenerationSoftware,Kicad,Pcbnew,8.0.8
; #@! TF.FileFunction,NonPlated,1,2,NPTH
FMAT,2
INCH
; #@! TA.AperFunction,NonPlated,NPTH,ComponentDrill
T1C0.0256
; #@! TA.AperFunction,NonPlated,NPTH,ComponentDrill
T2C0.0866
%
G90
G05
T1
X4.8862Y-1.1024
X5.1138Y-1.1024
T2
X1.4375Y-2.8125
X1.7188Y-3.9375
X2.0Y-1.3125
X2.4062Y-3.75
X2.75Y-2.0625
X3.125Y-2.8125
X3.2812Y-3.75
X3.5Y-1.3125
X4.25Y-2.0625
X4.625Y-2.8125
X5.0Y-3.375
X5.75Y-1.3125
X6.5Y-2.0625
X6.7188Y-3.75
X6.875Y-2.8125
X7.25Y-1.3125
X7.5938Y-3.75
X8.0Y-2.0625
X8.2812Y-3.9375
X8.5723Y-3.8317
X8.5731Y-2.5419
M30
