M48
; DRILL file {KiCad 8.0.8} date 2025-05-03T21:30:50+0200
; FORMAT={-:-/ absolute / inch / decimal}
; #@! TF.CreationDate,2025-05-03T21:30:50+02:00
; #@! TF.GenerationSoftware,Kicad,Pcbnew,8.0.8
; #@! TF.FileFunction,Plated,1,2,PTH
FMAT,2
INCH
; #@! TA.AperFunction,Plated,PTH,ViaDrill
T1C0.0157
; #@! TA.AperFunction,Plated,PTH,ComponentDrill
T2C0.0157
; #@! TA.AperFunction,Plated,PTH,ComponentDrill
T3C0.0236
; #@! TA.AperFunction,Plated,PTH,ComponentDrill
T4C0.0394
%
G90
G05
T1
X1.4261Y-1.6587
X1.4261Y-1.7402
X1.4375Y-2.6875
X1.4375Y-2.9375
X1.457Y-2.4094
X1.4583Y-2.3382
X1.5085Y-1.6587
X1.5085Y-1.7402
X1.5402Y-2.3368
X1.5408Y-2.4094
X1.6729Y-3.2274
X1.673Y-3.0896
X1.7605Y-3.0925
X1.7614Y-3.2274
X1.9052Y-3.0896
X1.9052Y-3.2274
X1.9375Y-2.375
X1.9734Y-4.0891
X1.979Y-1.0
X2.0Y-1.1875
X2.0Y-1.4375
X2.012Y-2.326
X2.0133Y-2.435
X2.0134Y-2.5478
X2.0137Y-2.375
X2.0137Y-2.5
X2.0249Y-3.0271
X2.0625Y-3.4062
X2.0783Y-3.3502
X2.0786Y-2.896
X2.0938Y-2.375
X2.0938Y-2.5
X2.0938Y-3.5312
X2.0938Y-3.5938
X2.0938Y-4.0
X2.0958Y-2.3246
X2.0968Y-2.435
X2.1113Y-3.4062
X2.1506Y-3.4062
X2.1562Y-3.125
X2.1744Y-1.6587
X2.1744Y-1.7578
X2.19Y-3.4062
X2.1967Y-2.5894
X2.2062Y-2.3382
X2.2062Y-2.4093
X2.2062Y-2.4643
X2.2062Y-2.5348
X2.2293Y-3.4062
X2.2345Y-3.5312
X2.2345Y-3.5938
X2.25Y-3.0291
X2.25Y-3.125
X2.25Y-3.75
X2.25Y-4.0
X2.2539Y-2.6459
X2.2568Y-1.6601
X2.2568Y-1.7578
X2.2687Y-3.4062
X2.2883Y-2.4643
X2.2883Y-2.5348
X2.289Y-2.4094
X2.308Y-2.7
X2.3088Y-3.5312
X2.3508Y-2.8668
X2.3615Y-3.4124
X2.3619Y-3.1259
X2.3619Y-2.7611
X2.362Y-3.2228
X2.375Y-3.625
X2.375Y-3.875
X2.3835Y-3.5312
X2.3945Y-3.2805
X2.4055Y-2.8032
X2.4232Y-2.9025
X2.4278Y-3.4192
X2.4366Y-2.8398
X2.4688Y-3.5312
X2.5312Y-3.375
X2.5312Y-3.5
X2.5501Y-3.1352
X2.5501Y-3.2118
X2.7188Y-3.125
X2.7188Y-3.1875
X2.7188Y-3.2812
X2.7188Y-3.375
X2.7198Y-3.4752
X2.75Y-1.3125
X2.75Y-1.9375
X2.75Y-2.1875
X2.7812Y-3.375
X2.8438Y-3.375
X2.875Y-3.3125
X2.927Y-1.6601
X2.927Y-1.7602
X2.9311Y-3.2813
X2.9682Y-3.163
X2.9686Y-3.4313
X2.9909Y-2.3382
X2.9909Y-2.4094
X2.9909Y-2.4643
X2.9909Y-2.5349
X3.0054Y-3.2373
X3.0094Y-1.6601
X3.0094Y-1.7602
X3.073Y-2.4094
X3.073Y-2.4643
X3.073Y-2.5349
X3.125Y-2.9375
X3.1364Y-3.139
X3.1811Y-3.4878
X3.1815Y-3.4478
X3.1829Y-3.5299
X3.2188Y-3.2731
X3.2188Y-3.3125
X3.2421Y-3.5573
X3.2616Y-4.0009
X3.2747Y-3.4844
X3.2812Y-3.625
X3.2812Y-3.875
X3.3125Y-3.4688
X3.3392Y-3.2142
X3.375Y-3.4375
X3.3933Y-3.2005
X3.3942Y-3.2803
X3.3943Y-3.2398
X3.3949Y-3.3236
X3.5Y-1.1875
X3.5Y-1.4375
X3.5Y-2.0625
X3.625Y-3.75
X3.6797Y-1.6601
X3.6797Y-1.7624
X3.7373Y-2.3381
X3.7373Y-2.4092
X3.7373Y-2.4642
X3.7373Y-2.5347
X3.7607Y-1.6601
X3.7607Y-1.7624
X3.8194Y-2.4092
X3.8194Y-2.4642
X3.8194Y-2.5347
X3.875Y-2.8125
X4.0Y-3.25
X4.0Y-3.3438
X4.0004Y-3.1181
X4.125Y-3.25
X4.125Y-3.3438
X4.1254Y-3.1181
X4.25Y-1.3125
X4.25Y-1.9375
X4.25Y-2.1875
X4.625Y-2.6875
X4.625Y-2.9375
X4.625Y-3.625
X4.625Y-3.875
X4.6562Y-1.0
X4.7052Y-1.6562
X4.7052Y-1.7588
X4.7059Y-0.979
X4.7823Y-2.3413
X4.7823Y-2.4124
X4.7823Y-2.4642
X4.7823Y-2.5347
X4.798Y-1.5628
X4.798Y-1.6566
X4.7992Y-1.7588
X4.8319Y-3.25
X4.8324Y-3.1181
X4.8643Y-2.4124
X4.8643Y-2.4642
X4.8643Y-2.5347
X4.8648Y-2.3407
X4.8889Y-0.994
X4.9062Y-1.2188
X4.9062Y-1.8438
X4.9244Y-1.6554
X4.9569Y-3.25
X4.9574Y-3.1181
X4.9604Y-1.4026
X4.9678Y-1.7916
X5.0Y-1.0
X5.0Y-2.0625
X5.0002Y-1.0778
X5.0388Y-1.6321
X5.0505Y-1.691
X5.0938Y-1.2188
X5.0973Y-0.991
X5.0996Y-1.8451
X5.1711Y-1.6567
X5.1712Y-1.7595
X5.1713Y-1.8424
X5.1733Y-1.5618
X5.2379Y-2.3405
X5.2379Y-2.4116
X5.2379Y-2.4642
X5.2379Y-2.5347
X5.2724Y-0.9769
X5.3125Y-1.0
X5.32Y-2.4116
X5.32Y-2.4642
X5.32Y-2.5347
X5.375Y-2.8125
X5.5625Y-3.25
X5.5629Y-3.1181
X5.6875Y-3.25
X5.6879Y-3.1181
X5.75Y-1.1875
X5.75Y-1.4375
X5.75Y-2.0625
X5.9912Y-2.3402
X5.9912Y-2.4113
X5.9912Y-2.4642
X5.9912Y-2.5347
X6.0732Y-2.4113
X6.0732Y-2.4642
X6.0732Y-2.5347
X6.125Y-2.8125
X6.5Y-1.3125
X6.5Y-2.1875
X6.7389Y-2.3364
X6.7389Y-2.4113
X6.7389Y-2.4642
X6.7389Y-2.5347
X6.8209Y-2.4113
X6.8209Y-2.4642
X6.8209Y-2.5347
X6.8438Y-3.75
X6.875Y-2.9375
X7.0625Y-3.0819
X7.0625Y-3.25
X7.0625Y-3.3438
X7.1796Y-3.3438
X7.1875Y-3.0819
X7.1875Y-3.25
X7.25Y-1.1875
X7.25Y-1.4375
X7.25Y-2.0625
X7.2943Y-3.2658
X7.3425Y-3.3166
X7.3811Y-3.3545
X7.4391Y-3.3541
X7.4401Y-3.3147
X7.4411Y-3.2754
X7.4421Y-3.2361
X7.4911Y-3.4464
X7.5Y-3.1562
X7.5312Y-3.625
X7.5312Y-3.875
X7.5625Y-2.375
X7.5625Y-2.4375
X7.5625Y-2.5
X7.5625Y-2.5625
X7.625Y-2.3745
X7.625Y-2.4375
X7.625Y-2.5
X7.625Y-2.5625
X7.6435Y-3.2697
X7.6535Y-3.4678
X7.6562Y-3.3892
X7.6562Y-3.4286
X7.6638Y-3.3034
X7.6875Y-3.5625
X7.6959Y-3.1456
X7.7188Y-2.8125
X7.7188Y-3.3792
X7.7192Y-3.4191
X7.7209Y-3.2679
X7.7209Y-3.3167
X7.8125Y-3.2188
X7.8125Y-3.5
X7.9062Y-3.2786
X8.0Y-1.3125
X8.0Y-1.9375
X8.0Y-2.1875
X8.1448Y-2.4094
X8.1461Y-2.3382
X8.2272Y-2.3382
X8.2286Y-2.4094
T2
X1.5856Y-1.3125
X1.5856Y-2.0625
X1.6644Y-1.3125
X1.6644Y-2.0625
X1.7188Y-3.5231
X1.7188Y-3.6019
X1.7731Y-2.8125
X1.8519Y-2.8125
X2.3356Y-1.3125
X2.3356Y-2.0625
X2.4144Y-1.3125
X2.4144Y-2.0625
X2.7106Y-2.8125
X2.75Y-3.7106
X2.75Y-3.7894
X2.7894Y-2.8125
X2.8437Y-3.7106
X2.8437Y-3.7894
X3.0856Y-1.3125
X3.0856Y-2.0625
X3.1644Y-1.3125
X3.1644Y-2.0625
X3.4606Y-2.8125
X3.5394Y-2.8125
X3.8356Y-1.3125
X3.8356Y-2.0625
X3.9144Y-1.3125
X3.9144Y-2.0625
X3.9687Y-3.7106
X3.9687Y-3.7894
X4.1562Y-3.7106
X4.1562Y-3.7894
X4.2106Y-2.8125
X4.25Y-3.7106
X4.25Y-3.7894
X4.2894Y-2.8125
X4.5856Y-1.3125
X4.5856Y-2.0625
X4.6644Y-1.3125
X4.6644Y-2.0625
X4.9606Y-2.8125
X5.0Y-3.7106
X5.0Y-3.7894
X5.0394Y-2.8125
X5.3356Y-1.3125
X5.3356Y-2.0625
X5.375Y-3.7106
X5.375Y-3.7894
X5.4144Y-1.3125
X5.4144Y-2.0625
X5.7106Y-2.8125
X5.7894Y-2.8125
X5.8437Y-3.7106
X5.8437Y-3.7893
X6.0312Y-3.7106
X6.0312Y-3.7894
X6.0856Y-1.3125
X6.0856Y-2.0625
X6.1644Y-1.3125
X6.1644Y-2.0625
X6.4606Y-2.8125
X6.5Y-3.7106
X6.5Y-3.7894
X6.5394Y-2.8125
X6.8356Y-1.3125
X6.8356Y-2.0625
X6.9144Y-1.3125
X6.9144Y-2.0625
X7.1562Y-3.7106
X7.1562Y-3.7894
X7.2106Y-2.8125
X7.2894Y-2.8125
X7.5856Y-1.3125
X7.5856Y-2.0625
X7.6644Y-1.3125
X7.6644Y-2.0625
X8.1875Y-2.7731
X8.1875Y-2.8519
X8.2812Y-3.1481
X8.2812Y-3.2269
X8.2812Y-3.5231
X8.2812Y-3.6019
X8.3356Y-1.3125
X8.3356Y-2.0625
X8.4144Y-1.3125
X8.4144Y-2.0625
T4
X2.0Y-2.0123
X2.0Y-2.1123
T3
G00X4.8299Y-0.9469
M15
G01X4.8299Y-0.9705
M16
G05
G00X4.8299Y-1.1016
M15
G01X4.8299Y-1.1449
M16
G05
G00X5.1701Y-0.9469
M15
G01X5.1701Y-0.9705
M16
G05
G00X5.1701Y-1.1016
M15
G01X5.1701Y-1.1449
M16
G05
M30
