%TF.GenerationSoftware,KiCad,Pcbnew,8.0.8*%
%TF.CreationDate,2025-05-09T16:59:31+02:00*%
%TF.ProjectId,pandemonium EC 2 Layer,70616e64-656d-46f6-9e69-756d20454320,rev?*%
%TF.SameCoordinates,Original*%
%TF.FileFunction,Soldermask,Top*%
%TF.FilePolarity,Negative*%
%FSLAX46Y46*%
G04 Gerber Fmt 4.6, Leading zero omitted, Abs format (unit mm)*
G04 Created by KiCad (PCBNEW 8.0.8) date 2025-05-09 16:59:31*
%MOMM*%
%LPD*%
G01*
G04 APERTURE LIST*
%ADD10C,2.200000*%
%ADD11C,3.048000*%
%ADD12C,3.987800*%
%ADD13R,1.700000X1.700000*%
%ADD14O,1.700000X1.700000*%
G04 APERTURE END LIST*
D10*
%TO.C,H3*%
X88900000Y-33137500D03*
%TD*%
%TO.C,H5*%
X146050000Y-33137500D03*
%TD*%
%TO.C,H2*%
X69850000Y-52187500D03*
%TD*%
%TO.C,H12*%
X174625000Y-71237500D03*
%TD*%
%TO.C,H11*%
X117475000Y-71237500D03*
%TD*%
%TO.C,H20*%
X210343750Y-99812500D03*
%TD*%
%TO.C,H6*%
X165100000Y-52187500D03*
%TD*%
%TO.C,H8*%
X203200000Y-52187500D03*
%TD*%
%TO.C,H10*%
X79375000Y-71237500D03*
%TD*%
%TO.C,H18*%
X191293750Y-95050000D03*
%TD*%
%TO.C,H7*%
X184150000Y-33137500D03*
%TD*%
D11*
%TO.C,S4*%
X127000000Y-102035000D03*
D12*
X127000000Y-86795000D03*
D11*
X88900000Y-102035000D03*
D12*
X88900000Y-86795000D03*
%TD*%
D11*
%TO.C,S5*%
X184150000Y-102035000D03*
D12*
X184150000Y-86795000D03*
D11*
X146050000Y-102035000D03*
D12*
X146050000Y-86795000D03*
%TD*%
D10*
%TO.C,H9*%
X36512500Y-71237500D03*
%TD*%
%TO.C,H4*%
X107950000Y-52187500D03*
%TD*%
%TO.C,H16*%
X153193750Y-85525000D03*
%TD*%
D11*
%TO.C,S2*%
X160337500Y-102035000D03*
D12*
X160337500Y-86795000D03*
D11*
X136525000Y-102035000D03*
D12*
X136525000Y-86795000D03*
%TD*%
D11*
%TO.C,S1*%
X117475000Y-102035000D03*
D12*
X117475000Y-86795000D03*
D11*
X93662500Y-102035000D03*
D12*
X93662500Y-86795000D03*
%TD*%
D10*
%TO.C,H14*%
X60325000Y-95050000D03*
%TD*%
D12*
%TO.C,S3*%
X202088750Y-68856250D03*
X202088750Y-92668750D03*
D11*
X217328750Y-68856250D03*
X217328750Y-92668750D03*
%TD*%
D10*
%TO.C,H23*%
X83343750Y-95050000D03*
%TD*%
%TO.C,H24*%
X131762500Y-85525000D03*
%TD*%
%TO.C,H17*%
X117475000Y-95050000D03*
%TD*%
%TO.C,H15*%
X107950000Y-85525000D03*
%TD*%
%TO.C,H1*%
X50800000Y-33137500D03*
%TD*%
%TO.C,H19*%
X43656250Y-99812500D03*
%TD*%
D13*
%TO.C,SW1*%
X50800000Y-50912500D03*
D14*
X50800000Y-53452500D03*
%TD*%
M02*
