M48
; DRILL file {KiCad 8.0.8} date 2025-05-09T16:59:32+0200
; FORMAT={-:-/ absolute / inch / decimal}
; #@! TF.CreationDate,2025-05-09T16:59:32+02:00
; #@! TF.GenerationSoftware,Kicad,Pcbnew,8.0.8
; #@! TF.FileFunction,NonPlated,1,2,NPTH
FMAT,2
INCH
; #@! TA.AperFunction,NonPlated,NPTH,ComponentDrill
T1C0.0866
; #@! TA.AperFunction,NonPlated,NPTH,ComponentDrill
T2C0.1200
; #@! TA.AperFunction,NonPlated,NPTH,ComponentDrill
T3C0.1570
%
G90
G05
T1
X1.4375Y-2.8046
X1.7188Y-3.9296
X2.0Y-1.3046
X2.375Y-3.7421
X2.75Y-2.0546
X3.125Y-2.8046
X3.2812Y-3.7421
X3.5Y-1.3046
X4.25Y-2.0546
X4.25Y-3.3671
X4.625Y-2.8046
X4.625Y-3.7421
X5.1875Y-3.3671
X5.75Y-1.3046
X6.0312Y-3.3671
X6.5Y-2.0546
X6.875Y-2.8046
X7.25Y-1.3046
X7.5312Y-3.7421
X8.0Y-2.0546
X8.2812Y-3.9296
T2
X3.5Y-4.0171
X3.6875Y-4.0171
X4.625Y-4.0171
X5.0Y-4.0171
X5.375Y-4.0171
X5.75Y-4.0171
X6.3125Y-4.0171
X7.25Y-4.0171
X8.5563Y-2.7109
X8.5563Y-3.6484
T3
X3.5Y-3.4171
X3.6875Y-3.4171
X4.625Y-3.4171
X5.0Y-3.4171
X5.375Y-3.4171
X5.75Y-3.4171
X6.3125Y-3.4171
X7.25Y-3.4171
X7.9562Y-2.7109
X7.9562Y-3.6484
M30
