M48
; DRILL file {KiCad 8.0.8} date 2025-05-09T16:59:32+0200
; FORMAT={-:-/ absolute / inch / decimal}
; #@! TF.CreationDate,2025-05-09T16:59:32+02:00
; #@! TF.GenerationSoftware,Kicad,Pcbnew,8.0.8
; #@! TF.FileFunction,Plated,1,2,PTH
FMAT,2
INCH
; #@! TA.AperFunction,Plated,PTH,ViaDrill
T1C0.0157
; #@! TA.AperFunction,Plated,PTH,ComponentDrill
T2C0.0157
; #@! TA.AperFunction,Plated,PTH,ComponentDrill
T3C0.0394
%
G90
G05
T1
X1.4261Y-1.6509
X1.4261Y-1.7323
X1.4375Y-2.6796
X1.4375Y-2.9296
X1.457Y-2.4015
X1.4583Y-2.3304
X1.5085Y-1.6509
X1.5085Y-1.7323
X1.5402Y-2.3289
X1.5408Y-2.4015
X1.6729Y-3.2195
X1.673Y-3.0817
X1.7605Y-3.0817
X1.7614Y-3.2195
X1.9052Y-3.0817
X1.9052Y-3.2195
X1.9375Y-2.3671
X1.9734Y-4.0812
X1.979Y-0.9921
X2.0Y-1.1796
X2.0Y-1.4296
X2.012Y-2.3182
X2.0133Y-2.4272
X2.0134Y-2.54
X2.0137Y-2.3671
X2.0137Y-2.4921
X2.0249Y-3.0192
X2.0625Y-3.3984
X2.0783Y-3.3423
X2.0786Y-2.8882
X2.0938Y-2.3671
X2.0938Y-2.4921
X2.0938Y-3.5234
X2.0938Y-3.5859
X2.0938Y-3.9921
X2.0958Y-2.3167
X2.0968Y-2.4272
X2.1113Y-3.3984
X2.1506Y-3.3984
X2.1562Y-3.1171
X2.1744Y-1.6509
X2.1744Y-1.75
X2.19Y-3.3984
X2.2062Y-2.3303
X2.2062Y-2.4015
X2.2062Y-2.4564
X2.2062Y-2.527
X2.2293Y-3.3984
X2.2345Y-3.5234
X2.2345Y-3.5859
X2.25Y-3.0212
X2.25Y-3.1171
X2.25Y-3.7421
X2.25Y-3.9921
X2.2539Y-2.638
X2.2568Y-1.6522
X2.2568Y-1.75
X2.2687Y-3.3984
X2.2883Y-2.4564
X2.2883Y-2.527
X2.289Y-2.4015
X2.308Y-2.6921
X2.3088Y-3.5234
X2.3508Y-2.8589
X2.3615Y-3.4045
X2.3619Y-3.118
X2.362Y-3.2149
X2.3735Y-2.7613
X2.375Y-3.6171
X2.375Y-3.8671
X2.3835Y-3.5234
X2.3945Y-3.2726
X2.4232Y-2.8946
X2.4278Y-3.4113
X2.4366Y-2.8319
X2.4688Y-3.5234
X2.5312Y-3.3671
X2.5312Y-3.4921
X2.5501Y-3.1273
X2.5501Y-3.2039
X2.62Y-3.1186
X2.62Y-3.1811
X2.62Y-3.2748
X2.62Y-3.3686
X2.6562Y-1.8314
X2.6914Y-3.1171
X2.6914Y-3.1796
X2.6914Y-3.2734
X2.6914Y-3.3671
X2.6925Y-3.4673
X2.7178Y-1.7793
X2.75Y-1.3046
X2.75Y-1.9296
X2.75Y-2.1796
X2.7812Y-3.3671
X2.8438Y-3.3671
X2.8496Y-1.8328
X2.875Y-3.3046
X2.927Y-1.6522
X2.927Y-1.7523
X2.9311Y-3.2735
X2.9682Y-3.1551
X2.9686Y-3.4235
X2.9909Y-2.3304
X2.9909Y-2.4015
X2.9909Y-2.4564
X2.9909Y-2.527
X3.0054Y-3.2294
X3.0094Y-1.6522
X3.0094Y-1.7523
X3.073Y-2.4015
X3.073Y-2.4564
X3.073Y-2.527
X3.125Y-2.9296
X3.1364Y-3.1311
X3.1811Y-3.4799
X3.1815Y-3.4399
X3.1829Y-3.522
X3.2188Y-3.2653
X3.2188Y-3.3046
X3.2421Y-3.5494
X3.2616Y-3.993
X3.2747Y-3.4765
X3.2812Y-3.6171
X3.2812Y-3.8671
X3.3125Y-3.4609
X3.3392Y-3.2063
X3.3438Y-1.75
X3.375Y-3.4296
X3.3933Y-3.1926
X3.3942Y-3.2724
X3.3943Y-3.2319
X3.3949Y-3.3157
X3.5Y-1.1796
X3.5Y-1.4296
X3.5Y-2.0546
X3.625Y-3.7421
X3.6797Y-1.6522
X3.6797Y-1.7545
X3.7373Y-2.3302
X3.7373Y-2.4013
X3.7373Y-2.4563
X3.7373Y-2.5269
X3.7607Y-1.6522
X3.7607Y-1.7545
X3.8194Y-2.4013
X3.8194Y-2.4563
X3.8194Y-2.5269
X3.875Y-2.8046
X4.0Y-3.2421
X4.0Y-3.3359
X4.0004Y-3.1063
X4.125Y-3.2421
X4.125Y-3.3359
X4.1254Y-3.1063
X4.25Y-1.3046
X4.25Y-1.9296
X4.25Y-2.1796
X4.625Y-2.6796
X4.625Y-2.9296
X4.625Y-3.6171
X4.625Y-3.8671
X4.7052Y-1.6484
X4.7052Y-1.7509
X4.7823Y-2.3334
X4.7823Y-2.4045
X4.7823Y-2.4563
X4.7823Y-2.5269
X4.798Y-1.5549
X4.798Y-1.6487
X4.7992Y-1.7509
X4.8319Y-3.2421
X4.8324Y-3.1063
X4.8643Y-2.4045
X4.8643Y-2.4563
X4.8643Y-2.5269
X4.8648Y-2.3328
X4.9569Y-3.2421
X4.9574Y-3.1063
X5.0Y-2.0546
X5.1711Y-1.6488
X5.1712Y-1.7517
X5.1713Y-1.8345
X5.1733Y-1.5539
X5.2379Y-2.3326
X5.2379Y-2.4037
X5.2379Y-2.4563
X5.2379Y-2.5269
X5.32Y-2.4037
X5.32Y-2.4563
X5.32Y-2.5269
X5.375Y-2.8046
X5.5625Y-3.2421
X5.5629Y-3.1063
X5.6875Y-3.2421
X5.6879Y-3.1063
X5.75Y-1.1796
X5.75Y-1.4296
X5.75Y-2.0546
X5.9912Y-2.3323
X5.9912Y-2.4034
X5.9912Y-2.4563
X5.9912Y-2.5269
X6.0732Y-2.4034
X6.0732Y-2.4563
X6.0732Y-2.5269
X6.125Y-2.8046
X6.5Y-1.3046
X6.5Y-2.1796
X6.7389Y-2.3286
X6.7389Y-2.4034
X6.7389Y-2.4563
X6.7389Y-2.5269
X6.8209Y-2.4034
X6.8209Y-2.4563
X6.8209Y-2.5269
X6.8438Y-3.7421
X6.875Y-2.9296
X7.0625Y-3.0741
X7.0625Y-3.2421
X7.0625Y-3.3359
X7.1796Y-3.3359
X7.1875Y-3.0741
X7.1875Y-3.2421
X7.25Y-1.1796
X7.25Y-1.4296
X7.25Y-2.0546
X7.2943Y-3.258
X7.3425Y-3.3087
X7.3811Y-3.3466
X7.4391Y-3.3462
X7.4401Y-3.3069
X7.4411Y-3.2675
X7.4421Y-3.2282
X7.4911Y-3.4386
X7.5Y-3.1484
X7.5312Y-3.6171
X7.5312Y-3.8671
X7.5625Y-2.3671
X7.5625Y-2.4296
X7.5625Y-2.4921
X7.5625Y-2.5546
X7.625Y-2.3666
X7.625Y-2.4296
X7.625Y-2.4921
X7.625Y-2.5546
X7.6435Y-3.2619
X7.6535Y-3.46
X7.6562Y-3.3813
X7.6562Y-3.4207
X7.6638Y-3.2955
X7.6875Y-3.5546
X7.6959Y-3.1377
X7.7188Y-2.8046
X7.7188Y-3.3714
X7.7192Y-3.4112
X7.7209Y-3.26
X7.7209Y-3.3089
X7.8125Y-3.2109
X7.8125Y-3.4921
X7.9062Y-3.2707
X8.0Y-1.3046
X8.0Y-1.9296
X8.0Y-2.1796
X8.1448Y-2.4015
X8.1461Y-2.3304
X8.2272Y-2.3304
X8.2286Y-2.4015
T2
X1.5856Y-1.3046
X1.5856Y-2.0546
X1.6644Y-1.3046
X1.6644Y-2.0546
X1.7188Y-3.5153
X1.7188Y-3.594
X1.7731Y-2.8046
X1.8519Y-2.8046
X2.3356Y-1.3046
X2.3356Y-2.0546
X2.4144Y-1.3046
X2.4144Y-2.0546
X2.7106Y-2.8046
X2.75Y-3.7027
X2.75Y-3.7816
X2.7894Y-2.8046
X2.8437Y-3.7027
X2.8437Y-3.7816
X3.0856Y-1.3046
X3.0856Y-2.0546
X3.1644Y-1.3046
X3.1644Y-2.0546
X3.4606Y-2.8046
X3.5394Y-2.8046
X3.8356Y-1.3046
X3.8356Y-2.0546
X3.9144Y-1.3046
X3.9144Y-2.0546
X3.9687Y-3.7028
X3.9687Y-3.7815
X4.1562Y-3.7028
X4.1562Y-3.7815
X4.2106Y-2.8046
X4.25Y-3.7028
X4.25Y-3.7815
X4.2894Y-2.8046
X4.5856Y-1.3046
X4.5856Y-2.0546
X4.6644Y-1.3046
X4.6644Y-2.0546
X4.9606Y-2.8046
X5.0Y-3.7028
X5.0Y-3.7815
X5.0394Y-2.8046
X5.3356Y-1.3046
X5.3356Y-2.0546
X5.375Y-3.7028
X5.375Y-3.7815
X5.4144Y-1.3046
X5.4144Y-2.0546
X5.7106Y-2.8046
X5.7894Y-2.8046
X5.8437Y-3.7027
X5.8437Y-3.7814
X6.0312Y-3.7027
X6.0312Y-3.7816
X6.0856Y-1.3046
X6.0856Y-2.0546
X6.1644Y-1.3046
X6.1644Y-2.0546
X6.4606Y-2.8046
X6.5Y-3.7028
X6.5Y-3.7815
X6.5394Y-2.8046
X6.8356Y-1.3046
X6.8356Y-2.0546
X6.9144Y-1.3046
X6.9144Y-2.0546
X7.1562Y-3.7028
X7.1562Y-3.7815
X7.2106Y-2.8046
X7.2894Y-2.8046
X7.5856Y-1.3046
X7.5856Y-2.0546
X7.6644Y-1.3046
X7.6644Y-2.0546
X8.1875Y-2.7653
X8.1875Y-2.844
X8.2812Y-3.1403
X8.2812Y-3.219
X8.2812Y-3.5153
X8.2812Y-3.594
X8.3356Y-1.3046
X8.3356Y-2.0546
X8.4144Y-1.3046
X8.4144Y-2.0546
T3
X2.0Y-2.0044
X2.0Y-2.1044
M30
