0
SECTION
2
HEADER
9
$INSUNITS
70
4
9
$ACADVER
1
AC1014
9
$HANDSEED
5
FFFF
0
ENDSEC
0
SECTION
2
TABLES
0
TABLE
2
VPORT
5
8
100
AcDbSymbolTable
0
ENDTAB
0
TABLE
2
LTYPE
5
5
100
AcDbSymbolTable
0
LTYPE
5
14
100
AcDbSymbolTableRecord
100
AcDbLinetypeTableRecord
2
BYBLOCK
70
0
0
LTYPE
5
15
100
AcDbSymbolTableRecord
100
AcDbLinetypeTableRecord
2
BYLAYER
70
0
0
ENDTAB
0
TABLE
2
LAYER
5
2
100
AcDbSymbolTable
70
2
0
LAYER
5
50
100
AcDbSymbolTableRecord
100
AcDbLayerTableRecord
2
0
70
0
6
CONTINUOUS
0
ENDTAB
0
TABLE
2
STYLE
5
3
100
AcDbSymbolTable
70
1
0
STYLE
5
11
100
AcDbSymbolTableRecord
100
AcDbTextStyleTableRecord
2
STANDARD
70
0
0
ENDTAB
0
TABLE
2
VIEW
5
6
100
AcDbSymbolTable
70
0
0
ENDTAB
0
TABLE
2
UCS
5
7
100
AcDbSymbolTable
70
0
0
ENDTAB
0
TABLE
2
APPID
5
9
100
AcDbSymbolTable
70
2
0
APPID
5
12
100
AcDbSymbolTableRecord
100
AcDbRegAppTableRecord
2
ACAD
70
0
0
ENDTAB
0
TABLE
2
DIMSTYLE
5
A
100
AcDbSymbolTable
70
1
0
ENDTAB
0
TABLE
2
BLOCK_RECORD
5
1
100
AcDbSymbolTable
70
1
0
BLOCK_RECORD
5
1F
100
AcDbSymbolTableRecord
100
AcDbBlockTableRecord
2
*MODEL_SPACE
0
BLOCK_RECORD
5
1B
100
AcDbSymbolTableRecord
100
AcDbBlockTableRecord
2
*PAPER_SPACE
0
ENDTAB
0
ENDSEC
0
SECTION
2
BLOCKS
0
BLOCK
5
20
100
AcDbEntity
100
AcDbBlockBegin
2
*MODEL_SPACE
0
ENDBLK
5
21
100
AcDbEntity
100
AcDbBlockEnd
0
BLOCK
5
1C
100
AcDbEntity
100
AcDbBlockBegin
2
*PAPER_SPACE
0
ENDBLK
5
1D
100
AcDbEntity
100
AcDbBlockEnd
0
ENDSEC
0
SECTION
2
ENTITIES
0
LWPOLYLINE
5
100
100
AcDbEntity
8
0
100
AcDbPolyline
90
40
70
1
43
0.0
10
-195.0463693456081
20
5.2439999999999864
42
0.74768815797563914
10
-194.85646410608058
20
4.6000000000000068
10
-193.74944248529596
20
4.5999999999999943
42
-0.99999999999999989
10
-193.74944248529596
20
1.0999999999999939
10
-194.85646410608058
20
1.0999999999999939
42
0.74768815797564514
10
-195.0463693456081
20
0.45599999999999169
42
0.14436874507643002
10
-193.5
20
6.2783112042552602e-13
10
3.0000000000000071
20
0
42
0.14436891437010274
10
4.5463712361525594
20
0.45599999999999774
42
0.74768815797558164
10
4.3564659966250545
20
1.0999999999999985
10
3.2494443758403984
20
1.0999999999999992
42
-0.99999999999999989
10
3.2494443758403984
20
4.6000000000000005
10
4.3564659966250554
20
4.6000000000000005
42
0.74768815797557941
10
4.546371236152563
20
5.2439999999999998
42
0.14436891437010355
10
3.0000000000000009
20
5.7000000000000011
10
1.0000000000000004
20
5.7000000000000011
42
-0.41421356237309459
10
8.3266726846886741e-16
20
6.6999999999999993
10
1.27675647831893e-14
20
74.262499999995043
42
-0.41421356237259566
10
0.99999999999830425
20
75.262499999995043
10
3.000000305975608
20
75.262499999998454
42
0.14436891437000904
10
4.5463715421277131
20
75.718499999998002
42
0.74768815797572996
10
4.3564663026003183
20
76.362499999998064
10
3.2494446818311102
20
76.362499999987705
42
-0.99999999999999989
10
3.2494446818310991
20
79.862500000000409
10
4.3564663025776307
20
79.862500000000423
42
0.74768815797551091
10
4.5463715421051765
20
80.506500000000401
42
0.14436894176769119
10
3.0000000000000115
20
80.962500000000901
10
-193.5
20
80.962499999999991
42
0.14436891437010702
10
-195.04637123615259
20
80.506499999999974
42
0.74768815797556243
10
-194.8564659966251
20
79.862499999999983
10
-193.74944437584037
20
79.862499999999997
42
-0.99999999999999989
10
-193.74944437584045
20
76.362499999999997
10
-194.85646599662513
20
76.362500000000011
42
0.74768815797561294
10
-195.04637123615268
20
75.718499999999992
42
0.14436891437011154
10
-193.5
20
75.262499999999974
10
-191.50000000000003
20
75.262500000000017
42
-0.41421356237309503
10
-190.5
20
74.262499999999989
10
-190.5
20
6.6999999999999993
42
-0.41421356237309503
10
-191.50000000000003
20
5.6999999999999993
10
-193.49999810945553
20
5.6999999999999851
42
0.14436891437010388
0
LWPOLYLINE
5
101
100
AcDbEntity
8
0
100
AcDbPolyline
90
8
70
1
43
0.0
10
-4.90625
20
73.174999999999997
10
-4.9062499999999973
20
60.174999999999997
42
-0.41421356237309698
10
-5.4062499999999991
20
59.675000000000004
10
-18.40625
20
59.675000000000004
42
-0.41421356237309631
10
-18.906250000000004
20
60.174999999999997
10
-18.90625
20
73.174999999999997
42
-0.41421356237309503
10
-18.40625
20
73.674999999999997
10
-5.4062499999999991
20
73.674999999999997
42
-0.4142135623730937
0
LWPOLYLINE
5
102
100
AcDbEntity
8
0
100
AcDbPolyline
90
14
70
1
43
0.0
10
-41.600000000000001
20
63.937500000000007
10
-41.600000000000001
20
64.4375
10
-46.981250000000003
20
64.4375
42
-0.41421356237309503
10
-47.481250000000003
20
64.9375
10
-47.481250000000003
20
77.9375
42
-0.41421356237309503
10
-46.981250000000003
20
78.4375
10
-31.600000000000001
20
78.4375
42
-0.41421356237309503
10
-31.100000000000001
20
77.9375
10
-31.099999999999998
20
64.9375
42
-0.41421356237309764
10
-31.600000000000001
20
64.4375
10
-34.600000000000001
20
64.4375
10
-34.600000000000001
20
63.937500000000007
42
-0.41421356237309764
10
-35.100000000000001
20
63.437500000000007
10
-41.100000000000001
20
63.437500000000007
42
-0.41421356237309503
0
LWPOLYLINE
5
103
100
AcDbEntity
8
0
100
AcDbPolyline
90
53
70
1
43
0.0
10
-117.80000000000001
20
63.937500000000007
10
-117.80000000000001
20
64.4375
10
-125.11924999999999
20
64.4375
10
-125.11925000000002
20
63.937500000000007
42
-0.41421356237310542
10
-125.61925000000001
20
63.437500000000007
10
-131.61924999999999
20
63.437499999999993
42
-0.41421356237310025
10
-132.11925000000002
20
63.937500000000007
10
-132.11925000000002
20
64.4375
10
-139.84999999999999
20
64.437499999999986
42
-0.41421356237310025
10
-140.34999999999999
20
64.9375
10
-140.34999999999999
20
77.9375
42
-0.41421356237308982
10
-139.84999999999999
20
78.4375
10
-82.756749999999997
20
78.437500000313619
42
-0.014196081244827902
10
-82.728374997236855
20
78.436694210234663
42
-0.01419607848562931
10
-82.700000000000017
20
78.4375
10
-50.650000000000006
20
78.4375
42
-0.41421356237309503
10
-50.150000000000006
20
77.9375
10
-50.150000000000006
20
64.9375
42
-0.41421356237309503
10
-50.650000000000006
20
64.4375
10
-53.650000000000006
20
64.4375
10
-53.650000000000006
20
63.937500000000007
42
-0.41421356237309503
10
-54.149999999999999
20
63.437500000000007
10
-64.880750000000006
20
63.437500000000007
42
-0.41421356237309503
10
-65.380750000000006
20
63.937500000000007
10
-65.380750000000006
20
64.4375
10
-72.700000000000003
20
64.4375
10
-72.700000000000003
20
63.937500000000007
42
-0.41421356237310542
10
-73.200000000000003
20
63.437500000000007
10
-79.200000000000003
20
63.437500000000007
42
-0.41421356237309503
10
-79.700000000000003
20
63.937500000000007
10
-79.700000000000003
20
64.4375
10
-82.256750000000011
20
64.4375
10
-82.256749999999982
20
63.937500000000007
42
-0.41421356237310542
10
-82.756749999999997
20
63.437500000000007
10
-88.756749999999982
20
63.437499999999993
42
-0.41421356237307944
10
-89.256749999999997
20
63.937500000000007
10
-89.256749999999997
20
64.4375
10
-91.75
20
64.4375
10
-91.75
20
63.937500000000007
42
-0.41421356237310542
10
-92.25
20
63.437500000000007
10
-98.25
20
63.437499999999993
42
-0.41421356237307944
10
-98.750000000000014
20
63.937500000000007
10
-98.75
20
64.4375
10
-101.24325
20
64.4375
10
-101.24325000000002
20
63.937500000000007
42
-0.41421356237310542
10
-101.74325000000002
20
63.437500000000007
10
-107.74325000000002
20
63.437499999999993
42
-0.41421356237310025
10
-108.24325000000002
20
63.937500000000007
10
-108.24325000000002
20
64.4375
10
-110.8
20
64.4375
10
-110.80000000000001
20
63.937500000000007
42
-0.41421356237310542
10
-111.30000000000001
20
63.437500000000007
10
-117.30000000000001
20
63.437499999999993
42
-0.41421356237310025
0
LWPOLYLINE
5
104
100
AcDbEntity
8
0
100
AcDbPolyline
90
40
70
1
43
0.0
10
-178.0932500000003
20
72.424829999999986
10
-171.82305000000028
20
72.424829999999986
10
-171.82305000000028
20
70.699540000000013
10
-170.62285000000031
20
70.699540000000013
10
-170.62285000000031
20
67.400500000000051
10
-171.82305000000028
20
67.400500000000036
10
-171.82305000000028
20
65.675250000000048
10
-176.39325000000025
20
65.675250000000048
10
-176.39325000000025
20
64.150000000000006
10
-172.09375
20
64.149999999999991
42
-0.41421356237312623
10
-171.59375
20
63.650000000000006
10
-171.59375000000006
20
50.650000000000006
42
-0.4142135623730222
10
-172.09375
20
50.150000000000006
10
-176.39325000000025
20
50.150000000000006
10
-176.39325000000025
20
48.624750000000169
10
-171.82305000000028
20
48.624750000000169
10
-171.82305000000028
20
46.899450000000172
10
-170.62285000000031
20
46.899450000000172
10
-170.62285000000031
20
43.600450000000201
10
-171.82305000000028
20
43.600450000000201
10
-171.82305000000036
20
41.875050000000215
10
-178.0932500000003
20
41.875050000000215
10
-178.0932500000003
20
41.049650000000213
10
-180.89325000000025
20
41.049650000000213
10
-180.89325000000025
20
41.875050000000215
10
-184.12335000000027
20
41.875050000000215
10
-184.12335000000019
20
48.624750000000169
10
-180.89325000000025
20
48.624750000000169
10
-180.89325000000025
20
50.150000000000006
10
-185.09375000000003
20
50.150000000000006
42
-0.41421356237313145
10
-185.59375000000003
20
50.650000000000006
10
-185.59375000000006
20
63.650000000000006
42
-0.41421356237307422
10
-185.09375000000003
20
64.150000000000006
10
-180.89325000000025
20
64.150000000000006
10
-180.89325000000025
20
65.675250000000048
10
-184.12335000000027
20
65.675250000000048
10
-184.12335000000019
20
72.424829999999986
10
-180.89325000000025
20
72.424829999999986
10
-180.89325000000025
20
73.250279999999989
10
-178.0932500000003
20
73.250279999999989
0
LWPOLYLINE
5
105
100
AcDbEntity
8
0
100
AcDbPolyline
90
8
70
1
43
0.0
10
-121.30000000000001
20
41.125
10
-121.29999999999998
20
54.125000000000007
42
-0.41421356237310025
10
-120.8
20
54.625
10
-107.80000000000001
20
54.625000000000014
42
-0.41421356237309503
10
-107.30000000000001
20
54.125000000000007
10
-107.30000000000001
20
41.125
42
-0.41421356237308982
10
-107.80000000000001
20
40.625
10
-120.8
20
40.624999999999993
42
-0.41421356237307422
0
LWPOLYLINE
5
106
100
AcDbEntity
8
0
100
AcDbPolyline
90
8
70
1
43
0.0
10
-145.40000000000001
20
54.125000000000007
42
0.41421356237307422
10
-145.90000000000001
20
54.625000000000014
10
-158.90000000000001
20
54.625
42
0.41421356237308982
10
-159.40000000000001
20
54.125000000000007
10
-159.40000000000001
20
41.125
42
0.41421356237309503
10
-158.90000000000001
20
40.625
10
-145.90000000000001
20
40.625
42
0.41421356237310025
10
-145.40000000000001
20
41.125
0
LWPOLYLINE
5
107
100
AcDbEntity
8
0
100
AcDbPolyline
90
8
70
1
43
0.0
10
-64.150000000000006
20
41.125
10
-64.150000000000006
20
54.125000000000007
42
-0.41421356237309503
10
-63.650000000000006
20
54.625
10
-50.650000000000006
20
54.625
42
-0.41421356237309503
10
-50.150000000000006
20
54.125000000000007
10
-50.150000000000006
20
41.125
42
-0.41421356237309503
10
-50.650000000000006
20
40.625
10
-63.650000000000006
20
40.625
42
-0.41421356237309503
0
LWPOLYLINE
5
108
100
AcDbEntity
8
0
100
AcDbPolyline
90
8
70
1
43
0.0
10
-139.84999999999999
20
54.625
42
0.41421356237308982
10
-140.34999999999999
20
54.125000000000007
10
-140.34999999999999
20
41.125
42
0.41421356237309503
10
-139.84999999999999
20
40.625
10
-126.85000000000001
20
40.625
42
0.41421356237310025
10
-126.35000000000002
20
41.125
10
-126.34999999999999
20
54.125000000000007
42
0.41421356237307422
10
-126.85000000000001
20
54.625000000000014
0
LWPOLYLINE
5
109
100
AcDbEntity
8
0
100
AcDbPolyline
90
8
70
1
43
0.0
10
-82.700000000000017
20
54.625
42
0.41421356237310025
10
-83.200000000000003
20
54.125000000000007
10
-83.200000000000017
20
41.125
42
0.41421356237307422
10
-82.700000000000017
20
40.625
10
-69.700000000000003
20
40.625
42
0.41421356237309503
10
-69.200000000000003
20
41.125
10
-69.200000000000003
20
54.125000000000007
42
0.41421356237309503
10
-69.700000000000003
20
54.625
0
LWPOLYLINE
5
110
100
AcDbEntity
8
0
100
AcDbPolyline
90
8
70
1
43
0.0
10
-102.25000000000001
20
41.125
10
-102.25000000000001
20
54.125000000000007
42
-0.41421356237308982
10
-101.75
20
54.625
10
-88.75
20
54.625000000000014
42
-0.41421356237309503
10
-88.25
20
54.125000000000007
10
-88.25
20
41.125
42
-0.41421356237308982
10
-88.75
20
40.625
10
-101.75
20
40.624999999999993
42
-0.41421356237309503
0
LWPOLYLINE
5
111
100
AcDbEntity
8
0
100
AcDbPolyline
90
8
70
1
43
0.0
10
-41.125
20
21.575000000000003
42
0.41421356237309503
10
-40.625
20
22.074999999999999
10
-40.625
20
35.075000000000003
42
0.41421356237309503
10
-41.125
20
35.575000000000003
10
-54.125000000000007
20
35.575000000000003
42
0.41421356237309503
10
-54.625
20
35.075000000000003
10
-54.625
20
22.074999999999999
42
0.41421356237309503
10
-54.125000000000007
20
21.574999999999996
0
LWPOLYLINE
5
112
100
AcDbEntity
8
0
100
AcDbPolyline
90
8
70
1
43
0.0
10
-135.875
20
16.024999999999999
10
-135.875
20
3.0250000000000021
42
-0.41421356237307549
10
-136.375
20
2.5249999999999999
10
-149.375
20
2.5249999999999941
42
-0.41421356237309437
10
-149.875
20
3.0249999999999999
10
-149.875
20
16.024999999999999
42
-0.41421356237310675
10
-149.375
20
16.525000000000002
10
-136.375
20
16.525000000000009
42
-0.41421356237307549
0
LWPOLYLINE
5
113
100
AcDbEntity
8
0
100
AcDbPolyline
90
8
70
1
43
0.0
10
-173.97500000000002
20
35.075000000000003
10
-173.97500000000002
20
22.075000000000003
42
-0.4142135623730846
10
-174.47500000000002
20
21.575000000000003
10
-187.47499999999999
20
21.574999999999996
42
-0.41421356237313406
10
-187.97499999999999
20
22.074999999999999
10
-187.97500000000002
20
35.075000000000003
42
-0.41421356237307683
10
-187.47499999999999
20
35.575000000000003
10
-174.47500000000002
20
35.575000000000003
42
-0.41421356237313145
0
LWPOLYLINE
5
114
100
AcDbEntity
8
0
100
AcDbPolyline
90
8
70
1
43
0.0
10
-44.600000000000001
20
54.625
42
0.41421356237309503
10
-45.099999999999994
20
54.125000000000007
10
-45.099999999999994
20
41.125
42
0.41421356237309503
10
-44.600000000000001
20
40.625
10
-31.600000000000001
20
40.625
42
0.41421356237309503
10
-31.100000000000001
20
41.125
10
-31.100000000000001
20
54.125000000000007
42
0.41421356237309503
10
-31.600000000000001
20
54.625
0
LWPOLYLINE
5
115
100
AcDbEntity
8
0
100
AcDbPolyline
90
8
70
1
43
0.0
10
-7.7875000000000005
20
40.625
10
-20.787500000000001
20
40.625
42
-0.41421356237309503
10
-21.287500000000001
20
41.125
10
-21.287500000000001
20
54.125000000000007
42
-0.41421356237309503
10
-20.787500000000001
20
54.625
10
-7.7875000000000005
20
54.625
42
-0.4142135623730937
10
-7.2874999999999996
20
54.125000000000007
10
-7.2875000000000023
20
41.125
42
-0.41421356237309503
0
LWPOLYLINE
5
116
100
AcDbEntity
8
0
100
AcDbPolyline
90
8
70
1
43
0.0
10
-136.375
20
21.575000000000003
42
0.4142135623730846
10
-135.87500000000003
20
22.074999999999999
10
-135.875
20
35.075000000000003
42
0.41421356237307161
10
-136.375
20
35.57500000000001
10
-149.375
20
35.575000000000003
42
0.41421356237310542
10
-149.875
20
35.075000000000003
10
-149.875
20
22.074999999999999
42
0.41421356237309503
10
-149.375
20
21.574999999999996
0
LWPOLYLINE
5
117
100
AcDbEntity
8
0
100
AcDbPolyline
90
8
70
1
43
0.0
10
-155.42500000000001
20
21.574999999999996
10
-168.42500000000001
20
21.574999999999982
42
-0.41421356237310281
10
-168.92500000000001
20
22.074999999999999
10
-168.92500000000001
20
35.075000000000003
42
-0.41421356237304563
10
-168.42500000000001
20
35.575000000000003
10
-155.42500000000001
20
35.575000000000003
42
-0.41421356237307161
10
-154.92500000000001
20
35.075000000000003
10
-154.92500000000004
20
22.075000000000003
42
-0.41421356237308721
0
LWPOLYLINE
5
118
100
AcDbEntity
8
0
100
AcDbPolyline
90
8
70
1
43
0.0
10
-116.82500000000002
20
35.075000000000003
10
-116.82500000000002
20
22.075000000000003
42
-0.41421356237311063
10
-117.32500000000002
20
21.575000000000003
10
-130.32499999999999
20
21.574999999999992
42
-0.41421356237309503
10
-130.82499999999999
20
22.074999999999999
10
-130.82499999999999
20
35.075000000000003
42
-0.41421356237310542
10
-130.32499999999999
20
35.575000000000003
10
-117.32500000000002
20
35.575000000000003
42
-0.41421356237309243
0
LWPOLYLINE
5
119
100
AcDbEntity
8
0
100
AcDbPolyline
90
8
70
1
43
0.0
10
-111.77500000000002
20
22.075000000000003
10
-111.77500000000002
20
35.075000000000003
42
-0.41421356237310542
10
-111.27500000000001
20
35.575000000000003
10
-98.275000000000006
20
35.575000000000003
42
-0.41421356237309243
10
-97.775000000000006
20
35.075000000000003
10
-97.775000000000006
20
22.075000000000003
42
-0.41421356237311063
10
-98.275000000000006
20
21.575000000000003
10
-111.27500000000001
20
21.574999999999992
42
-0.41421356237309764
0
LWPOLYLINE
5
120
100
AcDbEntity
8
0
100
AcDbPolyline
90
8
70
1
43
0.0
10
-187.97499999999999
20
3.0249999999999999
42
0.41421356237313273
10
-187.47499999999999
20
2.5249999999999995
10
-174.47500000000002
20
2.5249999999999999
42
0.41421356237307877
10
-173.97500000000002
20
3.0250000000000021
10
-173.97500000000002
20
16.024999999999999
42
0.41421356237313406
10
-174.47500000000002
20
16.525000000000006
10
-187.47499999999999
20
16.525000000000002
42
0.4142135623730781
10
-187.97499999999999
20
16.024999999999999
0
LWPOLYLINE
5
121
100
AcDbEntity
8
0
100
AcDbPolyline
90
8
70
1
43
0.0
10
-92.725000000000009
20
22.075000000000003
10
-92.725000000000009
20
35.075000000000003
42
-0.41421356237310542
10
-92.224999999999994
20
35.575000000000003
10
-79.224999999999994
20
35.575000000000003
42
-0.41421356237309764
10
-78.724999999999994
20
35.075000000000003
10
-78.725000000000009
20
22.075000000000003
42
-0.41421356237310025
10
-79.224999999999994
20
21.575000000000003
10
-92.224999999999994
20
21.574999999999992
42
-0.41421356237309764
0
LWPOLYLINE
5
122
100
AcDbEntity
8
0
100
AcDbPolyline
90
8
70
1
43
0.0
10
-3.0249999999999999
20
2.5249999999999999
42
0.41421356237309437
10
-2.5249999999999999
20
3.0249999999999999
10
-2.5249999999999999
20
16.024999999999999
42
0.4142135623730947
10
-3.0249999999999999
20
16.524999999999999
10
-16.024999999999999
20
16.525000000000002
42
0.41421356237309243
10
-16.525000000000002
20
16.024999999999999
10
-16.525000000000002
20
3.0249999999999999
42
0.41421356237309309
10
-16.024999999999999
20
2.5250000000000039
0
LWPOLYLINE
5
123
100
AcDbEntity
8
0
100
AcDbPolyline
90
8
70
1
43
0.0
10
-40.625
20
16.024999999999999
10
-40.625
20
3.0250000000000021
42
-0.41421356237309537
10
-41.125
20
2.5249999999999999
10
-54.125000000000007
20
2.525000000000003
42
-0.41421356237309437
10
-54.625
20
3.0249999999999999
10
-54.625
20
16.024999999999999
42
-0.4142135623730937
10
-54.125000000000007
20
16.525000000000002
10
-41.125
20
16.524999999999999
42
-0.41421356237309503
0
LWPOLYLINE
5
124
100
AcDbEntity
8
0
100
AcDbPolyline
90
8
70
1
43
0.0
10
-155.42500000000001
20
2.5250000000000039
10
-168.42500000000001
20
2.5249999999999817
42
-0.41421356237310153
10
-168.92500000000001
20
3.0249999999999999
10
-168.92500000000001
20
16.024999999999999
42
-0.41421356237304691
10
-168.42500000000001
20
16.525000000000002
10
-155.42500000000001
20
16.525000000000009
42
-0.41421356237307549
10
-154.92500000000001
20
16.024999999999999
10
-154.92500000000004
20
3.0250000000000021
42
-0.41421356237307549
0
LWPOLYLINE
5
125
100
AcDbEntity
8
0
100
AcDbPolyline
90
8
70
1
43
0.0
10
-16.525000000000002
20
22.074999999999999
42
0.41421356237309243
10
-16.024999999999999
20
21.574999999999996
10
-3.0249999999999999
20
21.575000000000003
42
0.41421356237309825
10
-2.5250000000000017
20
22.075000000000003
10
-2.5249999999999999
20
35.075000000000003
42
0.41421356237309537
10
-3.0249999999999999
20
35.575000000000003
10
-16.024999999999999
20
35.575000000000003
42
0.41421356237309631
10
-16.524999999999999
20
35.075000000000003
0
LWPOLYLINE
5
126
100
AcDbEntity
8
0
100
AcDbPolyline
90
8
70
1
43
0.0
10
-73.174999999999997
20
35.575000000000003
42
0.41421356237309503
10
-73.674999999999997
20
35.075000000000003
10
-73.674999999999997
20
22.074999999999999
42
0.41421356237309503
10
-73.174999999999997
20
21.574999999999996
10
-60.174999999999997
20
21.575000000000003
42
0.41421356237310025
10
-59.675000000000004
20
22.075000000000003
10
-59.675000000000004
20
35.075000000000003
42
0.41421356237309764
10
-60.174999999999997
20
35.575000000000003
0
LWPOLYLINE
5
127
100
AcDbEntity
8
0
100
AcDbPolyline
90
8
70
1
43
0.0
10
-35.575000000000003
20
22.075000000000003
10
-35.575000000000003
20
35.075000000000003
42
-0.41421356237309503
10
-35.075000000000003
20
35.575000000000003
10
-22.074999999999999
20
35.575000000000003
42
-0.41421356237309503
10
-21.575000000000003
20
35.075000000000003
10
-21.575000000000003
20
22.075000000000003
42
-0.41421356237309764
10
-22.074999999999999
20
21.575000000000003
10
-35.075000000000003
20
21.575000000000003
42
-0.41421356237309764
0
LWPOLYLINE
5
128
100
AcDbEntity
8
0
100
AcDbPolyline
90
14
70
1
43
0.0
10
-143.01875000000001
20
77.9375
10
-143.01875000000001
20
64.9375
42
-0.41421356237310542
10
-143.51875000000001
20
64.4375
10
-148.90000000000001
20
64.4375
10
-148.90000000000001
20
63.937500000000007
42
-0.41421356237310542
10
-149.40000000000001
20
63.437500000000007
10
-155.39999999999998
20
63.437499999999993
42
-0.41421356237307944
10
-155.90000000000001
20
63.937500000000007
10
-155.90000000000001
20
64.4375
10
-156.51875000000001
20
64.437499999999986
42
-0.41421356237307944
10
-157.01875000000004
20
64.9375
10
-157.01875000000001
20
77.9375
42
-0.41421356237310025
10
-156.51875000000001
20
78.4375
10
-143.51875000000001
20
78.437500000000014
42
-0.41421356237307422
0
LWPOLYLINE
5
129
100
AcDbEntity
8
0
100
AcDbPolyline
90
8
70
1
43
0.0
10
-111.27500000000001
20
16.525000000000002
42
0.41421356237310675
10
-111.77500000000002
20
16.024999999999999
10
-111.77500000000002
20
3.0249999999999999
42
0.41421356237309437
10
-111.27500000000001
20
2.5250000000000039
10
-98.275000000000006
20
2.5249999999999999
42
0.41421356237310675
10
-97.775000000000006
20
3.0250000000000021
10
-97.775000000000006
20
16.024999999999999
42
0.41421356237309631
10
-98.275000000000006
20
16.525000000000006
0
LWPOLYLINE
5
130
100
AcDbEntity
8
0
100
AcDbPolyline
90
8
70
1
43
0.0
10
-60.174999999999997
20
2.5249999999999999
42
0.41421356237309664
10
-59.675000000000004
20
3.0249999999999999
10
-59.675000000000004
20
16.024999999999999
42
0.41421356237309764
10
-60.174999999999997
20
16.524999999999999
10
-73.174999999999997
20
16.525000000000002
42
0.4142135623730937
10
-73.674999999999997
20
16.024999999999999
10
-73.674999999999997
20
3.0249999999999999
42
0.41421356237309437
10
-73.174999999999997
20
2.5250000000000039
0
LWPOLYLINE
5
131
100
AcDbEntity
8
0
100
AcDbPolyline
90
8
70
1
43
0.0
10
-130.32499999999999
20
16.524999999999999
10
-117.32500000000002
20
16.525000000000009
42
-0.41421356237309631
10
-116.82500000000002
20
16.024999999999999
10
-116.82499999999999
20
3.0250000000000021
42
-0.41421356237310675
10
-117.32500000000002
20
2.5249999999999999
10
-130.32499999999999
20
2.5249999999999941
42
-0.41421356237309437
10
-130.82499999999999
20
3.0249999999999999
10
-130.82499999999999
20
16.024999999999999
42
-0.41421356237310675
0
LWPOLYLINE
5
132
100
AcDbEntity
8
0
100
AcDbPolyline
90
8
70
1
43
0.0
10
-35.075000000000003
20
16.525000000000002
42
0.41421356237309503
10
-35.575000000000003
20
16.024999999999999
10
-35.575000000000003
20
3.0249999999999999
42
0.4142135623730957
10
-35.075000000000003
20
2.5250000000000039
10
-22.074999999999999
20
2.5249999999999999
42
0.41421356237309664
10
-21.575000000000003
20
3.0250000000000021
10
-21.575000000000003
20
16.024999999999999
42
0.41421356237309631
10
-22.074999999999999
20
16.524999999999999
0
LWPOLYLINE
5
133
100
AcDbEntity
8
0
100
AcDbPolyline
90
8
70
1
43
0.0
10
-92.725000000000009
20
3.0250000000000021
10
-92.725000000000009
20
16.024999999999999
42
-0.41421356237310675
10
-92.224999999999994
20
16.525000000000002
10
-79.224999999999994
20
16.525000000000002
42
-0.41421356237309764
10
-78.724999999999994
20
16.024999999999999
10
-78.724999999999994
20
3.0250000000000021
42
-0.41421356237309798
10
-79.224999999999994
20
2.5249999999999999
10
-92.224999999999994
20
2.5249999999999941
42
-0.4142135623730957
0
ENDSEC
0
SECTION
2
OBJECTS
0
DICTIONARY
5
C
100
AcDbDictionary
3
ACAD_GROUP
350
D
3
ACAD_MLINESTYLE
350
17
0
DICTIONARY
5
D
100
AcDbDictionary
0
DICTIONARY
5
1A
330
C
100
AcDbDictionary
0
DICTIONARY
5
17
100
AcDbDictionary
0
ENDSEC
0
EOF
