%TF.GenerationSoftware,KiCad,Pcbnew,(7.0.0)*%
%TF.CreationDate,2023-05-17T15:52:52+02:00*%
%TF.ProjectId,Alpha-ISO BLE,416c7068-612d-4495-934f-20424c452e6b,rev?*%
%TF.SameCoordinates,Original*%
%TF.FileFunction,Soldermask,Bot*%
%TF.FilePolarity,Negative*%
%FSLAX46Y46*%
G04 Gerber Fmt 4.6, Leading zero omitted, Abs format (unit mm)*
G04 Created by KiCad (PCBNEW (7.0.0)) date 2023-05-17 15:52:52*
%MOMM*%
%LPD*%
G01*
G04 APERTURE LIST*
G04 Aperture macros list*
%AMRoundRect*
0 Rectangle with rounded corners*
0 $1 Rounding radius*
0 $2 $3 $4 $5 $6 $7 $8 $9 X,Y pos of 4 corners*
0 Add a 4 corners polygon primitive as box body*
4,1,4,$2,$3,$4,$5,$6,$7,$8,$9,$2,$3,0*
0 Add four circle primitives for the rounded corners*
1,1,$1+$1,$2,$3*
1,1,$1+$1,$4,$5*
1,1,$1+$1,$6,$7*
1,1,$1+$1,$8,$9*
0 Add four rect primitives between the rounded corners*
20,1,$1+$1,$2,$3,$4,$5,0*
20,1,$1+$1,$4,$5,$6,$7,0*
20,1,$1+$1,$6,$7,$8,$9,0*
20,1,$1+$1,$8,$9,$2,$3,0*%
G04 Aperture macros list end*
%ADD10R,1.200000X1.600000*%
%ADD11R,1.600000X1.600000*%
%ADD12C,1.600000*%
%ADD13C,1.750000*%
%ADD14C,3.987800*%
%ADD15C,2.300000*%
%ADD16C,4.000000*%
%ADD17R,1.600000X1.200000*%
%ADD18C,1.700000*%
%ADD19O,1.700000X1.700000*%
%ADD20O,2.200000X1.500000*%
%ADD21RoundRect,0.250000X0.625000X-0.350000X0.625000X0.350000X-0.625000X0.350000X-0.625000X-0.350000X0*%
%ADD22O,1.750000X1.200000*%
%ADD23RoundRect,0.250000X-0.625000X0.350000X-0.625000X-0.350000X0.625000X-0.350000X0.625000X0.350000X0*%
G04 APERTURE END LIST*
D10*
%TO.C,D6*%
X149224999Y-75218749D03*
D11*
X149224999Y-77718749D03*
D12*
X149225000Y-69918750D03*
D10*
X149224999Y-72418749D03*
%TD*%
D13*
%TO.C,MX42*%
X143351250Y-95250000D03*
D14*
X148431250Y-95250000D03*
D13*
X153511250Y-95250000D03*
D15*
X144621250Y-92710000D03*
X150971250Y-90170000D03*
%TD*%
D13*
%TO.C,MX14*%
X64770000Y-95250000D03*
D14*
X69850000Y-95250000D03*
D13*
X74930000Y-95250000D03*
D15*
X66040000Y-92710000D03*
X72390000Y-90170000D03*
%TD*%
D10*
%TO.C,D17*%
X87312499Y-47812499D03*
D11*
X87312499Y-45312499D03*
D12*
X87312500Y-53112500D03*
D10*
X87312499Y-50612499D03*
%TD*%
D13*
%TO.C,MX5*%
X51117500Y-71437500D03*
D14*
X46037500Y-71437500D03*
D13*
X40957500Y-71437500D03*
D15*
X49847500Y-73977500D03*
X43497500Y-76517500D03*
%TD*%
D13*
%TO.C,MX12*%
X74930000Y-71437500D03*
D14*
X69850000Y-71437500D03*
D13*
X64770000Y-71437500D03*
D15*
X73660000Y-73977500D03*
X67310000Y-76517500D03*
%TD*%
D16*
%TO.C,S2*%
X127000000Y-102235000D03*
D14*
X127000000Y-86995000D03*
D16*
X88900000Y-102235000D03*
D14*
X88900000Y-86995000D03*
%TD*%
D10*
%TO.C,D35*%
X130174999Y-75218749D03*
D11*
X130174999Y-77718749D03*
D12*
X130175000Y-69918750D03*
D10*
X130174999Y-72418749D03*
%TD*%
%TO.C,D9*%
X158749999Y-37118749D03*
D11*
X158749999Y-39618749D03*
D12*
X158750000Y-31818750D03*
D10*
X158749999Y-34318749D03*
%TD*%
D17*
%TO.C,D24*%
X143766999Y-98424999D03*
D11*
X146266999Y-98424999D03*
D12*
X138467000Y-98425000D03*
D17*
X140966999Y-98424999D03*
%TD*%
D13*
%TO.C,MX35*%
X83820000Y-95250000D03*
D14*
X88900000Y-95250000D03*
D13*
X93980000Y-95250000D03*
D15*
X85090000Y-92710000D03*
X91440000Y-90170000D03*
%TD*%
D10*
%TO.C,D31*%
X196849999Y-56168749D03*
D11*
X196849999Y-58668749D03*
D12*
X196850000Y-50868750D03*
D10*
X196849999Y-53368749D03*
%TD*%
D13*
%TO.C,MX43*%
X148113750Y-95250000D03*
D14*
X153193750Y-95250000D03*
D13*
X158273750Y-95250000D03*
D15*
X149383750Y-92710000D03*
X155733750Y-90170000D03*
%TD*%
D13*
%TO.C,MX26*%
X102870000Y-71437500D03*
D14*
X107950000Y-71437500D03*
D13*
X113030000Y-71437500D03*
D15*
X104140000Y-68897500D03*
X110490000Y-66357500D03*
%TD*%
D10*
%TO.C,D13*%
X168274999Y-75218749D03*
D11*
X168274999Y-77718749D03*
D12*
X168275000Y-69918750D03*
D10*
X168274999Y-72418749D03*
%TD*%
D13*
%TO.C,MX16*%
X169545000Y-33337500D03*
D14*
X174625000Y-33337500D03*
D13*
X179705000Y-33337500D03*
D15*
X170815000Y-30797500D03*
X177165000Y-28257500D03*
%TD*%
D10*
%TO.C,D18*%
X177799999Y-56168749D03*
D11*
X177799999Y-58668749D03*
D12*
X177800000Y-50868750D03*
D10*
X177799999Y-53368749D03*
%TD*%
D17*
%TO.C,D12*%
X80774999Y-80168749D03*
D11*
X83274999Y-80168749D03*
D12*
X75475000Y-80168750D03*
D17*
X77974999Y-80168749D03*
%TD*%
D13*
%TO.C,MX31*%
X112395000Y-52387500D03*
D14*
X117475000Y-52387500D03*
D13*
X122555000Y-52387500D03*
D15*
X113665000Y-49847500D03*
X120015000Y-47307500D03*
%TD*%
D13*
%TO.C,MX29*%
X112395000Y-33337500D03*
D14*
X117475000Y-33337500D03*
D13*
X122555000Y-33337500D03*
D15*
X113665000Y-30797500D03*
X120015000Y-28257500D03*
%TD*%
D13*
%TO.C,MX36*%
X67151250Y-95250000D03*
D14*
X72231250Y-95250000D03*
D13*
X77311250Y-95250000D03*
D15*
X68421250Y-92710000D03*
X74771250Y-90170000D03*
%TD*%
D10*
%TO.C,D20*%
X187324999Y-75218749D03*
D11*
X187324999Y-77718749D03*
D12*
X187325000Y-69918750D03*
D10*
X187324999Y-72418749D03*
%TD*%
%TO.C,D37*%
X213518749Y-84743749D03*
D11*
X213518749Y-87243749D03*
D12*
X213518750Y-79443750D03*
D10*
X213518749Y-81943749D03*
%TD*%
D17*
%TO.C,D32*%
X209737499Y-43656249D03*
D11*
X207237499Y-43656249D03*
D12*
X215037500Y-43656250D03*
D17*
X212537499Y-43656249D03*
%TD*%
D10*
%TO.C,D29*%
X120649999Y-56168749D03*
D11*
X120649999Y-58668749D03*
D12*
X120650000Y-50868750D03*
D10*
X120649999Y-53368749D03*
%TD*%
%TO.C,D2*%
X139699999Y-37118749D03*
D11*
X139699999Y-39618749D03*
D12*
X139700000Y-31818750D03*
D10*
X139699999Y-34318749D03*
%TD*%
D13*
%TO.C,MX8*%
X55245000Y-33337500D03*
D14*
X60325000Y-33337500D03*
D13*
X65405000Y-33337500D03*
D15*
X56515000Y-30797500D03*
X62865000Y-28257500D03*
%TD*%
D13*
%TO.C,MX37*%
X100488750Y-95250000D03*
D14*
X105568750Y-95250000D03*
D13*
X110648750Y-95250000D03*
D15*
X101758750Y-92710000D03*
X108108750Y-90170000D03*
%TD*%
D10*
%TO.C,D15*%
X82549999Y-37118749D03*
D11*
X82549999Y-39618749D03*
D12*
X82550000Y-31818750D03*
D10*
X82549999Y-34318749D03*
%TD*%
D16*
%TO.C,S3*%
X184150000Y-102235000D03*
D14*
X184150000Y-86995000D03*
D16*
X146050000Y-102235000D03*
D14*
X146050000Y-86995000D03*
%TD*%
D13*
%TO.C,MX18*%
X169545000Y-52387500D03*
D14*
X174625000Y-52387500D03*
D13*
X179705000Y-52387500D03*
D15*
X170815000Y-49847500D03*
X177165000Y-47307500D03*
%TD*%
D10*
%TO.C,D28*%
X101599999Y-56168749D03*
D11*
X101599999Y-58668749D03*
D12*
X101600000Y-50868750D03*
D10*
X101599999Y-53368749D03*
%TD*%
%TO.C,D34*%
X111124999Y-75218749D03*
D11*
X111124999Y-77718749D03*
D12*
X111125000Y-69918750D03*
D10*
X111124999Y-72418749D03*
%TD*%
D13*
%TO.C,MX24*%
X93345000Y-52387500D03*
D14*
X98425000Y-52387500D03*
D13*
X103505000Y-52387500D03*
D15*
X94615000Y-49847500D03*
X100965000Y-47307500D03*
%TD*%
D10*
%TO.C,D16*%
X177799999Y-37118749D03*
D11*
X177799999Y-39618749D03*
D12*
X177800000Y-31818750D03*
D10*
X177799999Y-34318749D03*
%TD*%
D13*
%TO.C,MX44*%
X176688750Y-95250000D03*
D14*
X181768750Y-95250000D03*
D13*
X186848750Y-95250000D03*
D15*
X177958750Y-92710000D03*
X184308750Y-90170000D03*
%TD*%
D13*
%TO.C,MX19*%
X93980000Y-71437500D03*
D14*
X88900000Y-71437500D03*
D13*
X83820000Y-71437500D03*
D15*
X92710000Y-73977500D03*
X86360000Y-76517500D03*
%TD*%
D13*
%TO.C,MX21*%
X102870000Y-95250000D03*
D14*
X107950000Y-95250000D03*
D13*
X113030000Y-95250000D03*
D15*
X104140000Y-92710000D03*
X110490000Y-90170000D03*
%TD*%
D13*
%TO.C,MX15*%
X74295000Y-33337500D03*
D14*
X79375000Y-33337500D03*
D13*
X84455000Y-33337500D03*
D15*
X75565000Y-30797500D03*
X81915000Y-28257500D03*
%TD*%
D10*
%TO.C,D40*%
X168274999Y-99031249D03*
D11*
X168274999Y-101531249D03*
D12*
X168275000Y-93731250D03*
D10*
X168274999Y-96231249D03*
%TD*%
D13*
%TO.C,MX4*%
X131445000Y-52387500D03*
D14*
X136525000Y-52387500D03*
D13*
X141605000Y-52387500D03*
D15*
X132715000Y-49847500D03*
X139065000Y-47307500D03*
%TD*%
D13*
%TO.C,MX2*%
X131445000Y-33337500D03*
D14*
X136525000Y-33337500D03*
D13*
X141605000Y-33337500D03*
D15*
X132715000Y-30797500D03*
X139065000Y-28257500D03*
%TD*%
D10*
%TO.C,D23*%
X120649999Y-37118749D03*
D11*
X120649999Y-39618749D03*
D12*
X120650000Y-31818750D03*
D10*
X120649999Y-34318749D03*
%TD*%
D13*
%TO.C,MX11*%
X150495000Y-52387500D03*
D14*
X155575000Y-52387500D03*
D13*
X160655000Y-52387500D03*
D15*
X151765000Y-49847500D03*
X158115000Y-47307500D03*
%TD*%
D13*
%TO.C,MX9*%
X150495000Y-33337500D03*
D14*
X155575000Y-33337500D03*
D13*
X160655000Y-33337500D03*
D15*
X151765000Y-30797500D03*
X158115000Y-28257500D03*
%TD*%
D13*
%TO.C,MX38*%
X95726250Y-95250000D03*
D14*
X100806250Y-95250000D03*
D13*
X105886250Y-95250000D03*
D15*
X96996250Y-92710000D03*
X103346250Y-90170000D03*
%TD*%
D10*
%TO.C,D4*%
X139699999Y-56168749D03*
D11*
X139699999Y-58668749D03*
D12*
X139700000Y-50868750D03*
D10*
X139699999Y-53368749D03*
%TD*%
D16*
%TO.C,S8*%
X184150000Y-102235000D03*
D14*
X184150000Y-86995000D03*
D16*
X88900000Y-102235000D03*
D14*
X88900000Y-86995000D03*
%TD*%
D13*
%TO.C,MX20*%
X179070000Y-71437500D03*
D14*
X184150000Y-71437500D03*
D13*
X189230000Y-71437500D03*
D15*
X180340000Y-68897500D03*
X186690000Y-66357500D03*
%TD*%
D10*
%TO.C,D11*%
X158749999Y-56168749D03*
D11*
X158749999Y-58668749D03*
D12*
X158750000Y-50868750D03*
D10*
X158749999Y-53368749D03*
%TD*%
%TO.C,D3*%
X49212499Y-47812499D03*
D11*
X49212499Y-45312499D03*
D12*
X49212500Y-53112500D03*
D10*
X49212499Y-50612499D03*
%TD*%
D13*
%TO.C,MX3*%
X36195000Y-52387500D03*
D14*
X41275000Y-52387500D03*
D13*
X46355000Y-52387500D03*
D15*
X37465000Y-49847500D03*
X43815000Y-47307500D03*
%TD*%
D10*
%TO.C,D25*%
X196849999Y-37118749D03*
D11*
X196849999Y-39618749D03*
D12*
X196850000Y-31818750D03*
D10*
X196849999Y-34318749D03*
%TD*%
%TO.C,D19*%
X96837499Y-73212499D03*
D11*
X96837499Y-70712499D03*
D12*
X96837500Y-78512500D03*
D10*
X96837499Y-76012499D03*
%TD*%
%TO.C,D14*%
X79374999Y-99031249D03*
D11*
X79374999Y-101531249D03*
D12*
X79375000Y-93731250D03*
D10*
X79374999Y-96231249D03*
%TD*%
%TO.C,D22*%
X101599999Y-37118749D03*
D11*
X101599999Y-39618749D03*
D12*
X101600000Y-31818750D03*
D10*
X101599999Y-34318749D03*
%TD*%
D13*
%TO.C,MX30*%
X207645000Y-33337500D03*
D14*
X212725000Y-33337500D03*
D13*
X217805000Y-33337500D03*
D15*
X208915000Y-30797500D03*
X215265000Y-28257500D03*
%TD*%
D13*
%TO.C,MX39*%
X121920000Y-95250000D03*
D14*
X127000000Y-95250000D03*
D13*
X132080000Y-95250000D03*
D15*
X123190000Y-92710000D03*
X129540000Y-90170000D03*
%TD*%
D16*
%TO.C,S6*%
X117475000Y-102235000D03*
D14*
X117475000Y-86995000D03*
D16*
X93662500Y-102235000D03*
D14*
X93662500Y-86995000D03*
%TD*%
D13*
%TO.C,MX6*%
X140970000Y-71437500D03*
D14*
X146050000Y-71437500D03*
D13*
X151130000Y-71437500D03*
D15*
X142240000Y-68897500D03*
X148590000Y-66357500D03*
%TD*%
D16*
%TO.C,S4*%
X107950000Y-102235000D03*
D14*
X107950000Y-86995000D03*
D16*
X69850000Y-102235000D03*
D14*
X69850000Y-86995000D03*
%TD*%
D10*
%TO.C,D1*%
X44449999Y-37118749D03*
D11*
X44449999Y-39618749D03*
D12*
X44450000Y-31818750D03*
D10*
X44449999Y-34318749D03*
%TD*%
%TO.C,D10*%
X68262499Y-47812499D03*
D11*
X68262499Y-45312499D03*
D12*
X68262500Y-53112500D03*
D10*
X68262499Y-50612499D03*
%TD*%
D13*
%TO.C,MX10*%
X55245000Y-52387500D03*
D14*
X60325000Y-52387500D03*
D13*
X65405000Y-52387500D03*
D15*
X56515000Y-49847500D03*
X62865000Y-47307500D03*
%TD*%
D13*
%TO.C,MX17*%
X74295000Y-52387500D03*
D14*
X79375000Y-52387500D03*
D13*
X84455000Y-52387500D03*
D15*
X75565000Y-49847500D03*
X81915000Y-47307500D03*
%TD*%
D13*
%TO.C,MX27*%
X205263750Y-80962500D03*
D14*
X210343750Y-80962500D03*
D13*
X215423750Y-80962500D03*
D15*
X206533750Y-78422500D03*
X212883750Y-75882500D03*
%TD*%
D16*
%TO.C,S9*%
X184150000Y-102235000D03*
D14*
X184150000Y-86995000D03*
D16*
X69850000Y-102235000D03*
D14*
X69850000Y-86995000D03*
%TD*%
D10*
%TO.C,D7*%
X46831249Y-94268749D03*
D11*
X46831249Y-96768749D03*
D12*
X46831250Y-88968750D03*
D10*
X46831249Y-91468749D03*
%TD*%
D13*
%TO.C,MX23*%
X188595000Y-33337500D03*
D14*
X193675000Y-33337500D03*
D13*
X198755000Y-33337500D03*
D15*
X189865000Y-30797500D03*
X196215000Y-28257500D03*
%TD*%
D13*
%TO.C,MX1*%
X36195000Y-33337500D03*
D14*
X41275000Y-33337500D03*
D13*
X46355000Y-33337500D03*
D15*
X37465000Y-30797500D03*
X43815000Y-28257500D03*
%TD*%
D13*
%TO.C,MX22*%
X93345000Y-33337500D03*
D14*
X98425000Y-33337500D03*
D13*
X103505000Y-33337500D03*
D15*
X94615000Y-30797500D03*
X100965000Y-28257500D03*
%TD*%
D10*
%TO.C,D5*%
X53974999Y-73212499D03*
D11*
X53974999Y-70712499D03*
D12*
X53975000Y-78512500D03*
D10*
X53974999Y-76012499D03*
%TD*%
%TO.C,D27*%
X189706249Y-95856249D03*
D11*
X189706249Y-98356249D03*
D12*
X189706250Y-90556250D03*
D10*
X189706249Y-93056249D03*
%TD*%
D17*
%TO.C,D21*%
X111312499Y-98424999D03*
D11*
X108812499Y-98424999D03*
D12*
X116612500Y-98425000D03*
D17*
X114112499Y-98424999D03*
%TD*%
D13*
%TO.C,MX25*%
X188595000Y-52387500D03*
D14*
X193675000Y-52387500D03*
D13*
X198755000Y-52387500D03*
D15*
X189865000Y-49847500D03*
X196215000Y-47307500D03*
%TD*%
D10*
%TO.C,D8*%
X63499999Y-37118749D03*
D11*
X63499999Y-39618749D03*
D12*
X63500000Y-31818750D03*
D10*
X63499999Y-34318749D03*
%TD*%
D16*
%TO.C,S7*%
X160337500Y-102235000D03*
D14*
X160337500Y-86995000D03*
D16*
X136525000Y-102235000D03*
D14*
X136525000Y-86995000D03*
%TD*%
D10*
%TO.C,D26*%
X215899999Y-37118749D03*
D11*
X215899999Y-39618749D03*
D12*
X215900000Y-31818750D03*
D10*
X215899999Y-34318749D03*
%TD*%
D13*
%TO.C,MX28*%
X160020000Y-95250000D03*
D14*
X165100000Y-95250000D03*
D13*
X170180000Y-95250000D03*
D15*
X161290000Y-92710000D03*
X167640000Y-90170000D03*
%TD*%
D13*
%TO.C,MX32*%
X207645000Y-52387500D03*
D14*
X212725000Y-52387500D03*
D13*
X217805000Y-52387500D03*
D15*
X208915000Y-49847500D03*
X215265000Y-47307500D03*
%TD*%
D13*
%TO.C,MX7*%
X38576250Y-90487500D03*
D14*
X43656250Y-90487500D03*
D13*
X48736250Y-90487500D03*
D15*
X39846250Y-87947500D03*
X46196250Y-85407500D03*
%TD*%
D13*
%TO.C,MX33*%
X121920000Y-71437500D03*
D14*
X127000000Y-71437500D03*
D13*
X132080000Y-71437500D03*
D15*
X123190000Y-68897500D03*
X129540000Y-66357500D03*
%TD*%
D13*
%TO.C,MX34*%
X131445000Y-95250000D03*
D14*
X136525000Y-95250000D03*
D13*
X141605000Y-95250000D03*
D15*
X132715000Y-92710000D03*
X139065000Y-90170000D03*
%TD*%
D13*
%TO.C,MX13*%
X160020000Y-71437500D03*
D14*
X165100000Y-71437500D03*
D13*
X170180000Y-71437500D03*
D15*
X161290000Y-68897500D03*
X167640000Y-66357500D03*
%TD*%
D18*
%TO.C,J1*%
X219386662Y-73189580D03*
D19*
X216846661Y-73189579D03*
X214306661Y-73189579D03*
X211766661Y-73189579D03*
X209226661Y-73189579D03*
X206686661Y-73189579D03*
X204146661Y-73189579D03*
D20*
X201352661Y-60489579D03*
X201352661Y-58584579D03*
D19*
X204146661Y-55409579D03*
X206686661Y-55409579D03*
X209226661Y-55409579D03*
X211766661Y-55409579D03*
%TD*%
D21*
%TO.C,J3*%
X96906250Y-63912500D03*
D22*
X96906249Y-61912499D03*
X96906249Y-59912499D03*
%TD*%
D23*
%TO.C,J2*%
X192812500Y-62500000D03*
D22*
X192812499Y-64499999D03*
%TD*%
M02*
