%TF.GenerationSoftware,KiCad,Pcbnew,(7.0.0)*%
%TF.CreationDate,2023-06-07T21:16:20+02:00*%
%TF.ProjectId,pandemonium,70616e64-656d-46f6-9e69-756d2e6b6963,rev?*%
%TF.SameCoordinates,Original*%
%TF.FileFunction,Soldermask,Top*%
%TF.FilePolarity,Negative*%
%FSLAX46Y46*%
G04 Gerber Fmt 4.6, Leading zero omitted, Abs format (unit mm)*
G04 Created by KiCad (PCBNEW (7.0.0)) date 2023-06-07 21:16:20*
%MOMM*%
%LPD*%
G01*
G04 APERTURE LIST*
%ADD10R,1.600000X1.600000*%
%ADD11C,1.600000*%
%ADD12C,1.750000*%
%ADD13C,3.987800*%
%ADD14R,1.350000X1.350000*%
%ADD15O,1.350000X1.350000*%
%ADD16C,1.700000*%
%ADD17O,1.700000X1.700000*%
%ADD18O,2.200000X1.500000*%
G04 APERTURE END LIST*
D10*
%TO.C,D6*%
X149224999Y-77718749D03*
D11*
X149225000Y-69918750D03*
%TD*%
D12*
%TO.C,MX42*%
X143351250Y-95250000D03*
D13*
X148431250Y-95250000D03*
D12*
X153511250Y-95250000D03*
%TD*%
%TO.C,MX14*%
X64770000Y-95250000D03*
D13*
X69850000Y-95250000D03*
D12*
X74930000Y-95250000D03*
%TD*%
D10*
%TO.C,D17*%
X87312499Y-45312499D03*
D11*
X87312500Y-53112500D03*
%TD*%
D12*
%TO.C,MX5*%
X51117500Y-71437500D03*
D13*
X46037500Y-71437500D03*
D12*
X40957500Y-71437500D03*
%TD*%
%TO.C,MX12*%
X74930000Y-71437500D03*
D13*
X69850000Y-71437500D03*
D12*
X64770000Y-71437500D03*
%TD*%
D13*
%TO.C,S2*%
X127000000Y-86995000D03*
X88900000Y-86995000D03*
%TD*%
D10*
%TO.C,D35*%
X130174999Y-77718749D03*
D11*
X130175000Y-69918750D03*
%TD*%
D10*
%TO.C,D9*%
X158749999Y-39618749D03*
D11*
X158750000Y-31818750D03*
%TD*%
D10*
%TO.C,D24*%
X146266999Y-98424999D03*
D11*
X138467000Y-98425000D03*
%TD*%
D12*
%TO.C,MX35*%
X83820000Y-95250000D03*
D13*
X88900000Y-95250000D03*
D12*
X93980000Y-95250000D03*
%TD*%
D10*
%TO.C,D31*%
X196849999Y-58668749D03*
D11*
X196850000Y-50868750D03*
%TD*%
D12*
%TO.C,MX43*%
X148113750Y-95250000D03*
D13*
X153193750Y-95250000D03*
D12*
X158273750Y-95250000D03*
%TD*%
%TO.C,MX26*%
X102870000Y-71437500D03*
D13*
X107950000Y-71437500D03*
D12*
X113030000Y-71437500D03*
%TD*%
D10*
%TO.C,D13*%
X168274999Y-77718749D03*
D11*
X168275000Y-69918750D03*
%TD*%
D12*
%TO.C,MX16*%
X169545000Y-33337500D03*
D13*
X174625000Y-33337500D03*
D12*
X179705000Y-33337500D03*
%TD*%
D10*
%TO.C,D18*%
X177799999Y-58668749D03*
D11*
X177800000Y-50868750D03*
%TD*%
D10*
%TO.C,D12*%
X83274999Y-80168749D03*
D11*
X75475000Y-80168750D03*
%TD*%
D12*
%TO.C,MX31*%
X112395000Y-52387500D03*
D13*
X117475000Y-52387500D03*
D12*
X122555000Y-52387500D03*
%TD*%
%TO.C,MX29*%
X112395000Y-33337500D03*
D13*
X117475000Y-33337500D03*
D12*
X122555000Y-33337500D03*
%TD*%
%TO.C,MX36*%
X67151250Y-95250000D03*
D13*
X72231250Y-95250000D03*
D12*
X77311250Y-95250000D03*
%TD*%
D10*
%TO.C,D20*%
X187324999Y-77718749D03*
D11*
X187325000Y-69918750D03*
%TD*%
D10*
%TO.C,D37*%
X213518749Y-87243749D03*
D11*
X213518750Y-79443750D03*
%TD*%
D10*
%TO.C,D32*%
X207237499Y-43656249D03*
D11*
X215037500Y-43656250D03*
%TD*%
D10*
%TO.C,D29*%
X120649999Y-58668749D03*
D11*
X120650000Y-50868750D03*
%TD*%
D10*
%TO.C,D2*%
X139699999Y-39618749D03*
D11*
X139700000Y-31818750D03*
%TD*%
D12*
%TO.C,MX8*%
X55245000Y-33337500D03*
D13*
X60325000Y-33337500D03*
D12*
X65405000Y-33337500D03*
%TD*%
%TO.C,MX37*%
X100488750Y-95250000D03*
D13*
X105568750Y-95250000D03*
D12*
X110648750Y-95250000D03*
%TD*%
D10*
%TO.C,D15*%
X82549999Y-39618749D03*
D11*
X82550000Y-31818750D03*
%TD*%
D13*
%TO.C,S3*%
X184150000Y-86995000D03*
X146050000Y-86995000D03*
%TD*%
D12*
%TO.C,MX18*%
X169545000Y-52387500D03*
D13*
X174625000Y-52387500D03*
D12*
X179705000Y-52387500D03*
%TD*%
D10*
%TO.C,D28*%
X101599999Y-58668749D03*
D11*
X101600000Y-50868750D03*
%TD*%
D10*
%TO.C,D34*%
X111124999Y-77718749D03*
D11*
X111125000Y-69918750D03*
%TD*%
D12*
%TO.C,MX24*%
X93345000Y-52387500D03*
D13*
X98425000Y-52387500D03*
D12*
X103505000Y-52387500D03*
%TD*%
D10*
%TO.C,D16*%
X177799999Y-39618749D03*
D11*
X177800000Y-31818750D03*
%TD*%
D12*
%TO.C,MX44*%
X176688750Y-95250000D03*
D13*
X181768750Y-95250000D03*
D12*
X186848750Y-95250000D03*
%TD*%
%TO.C,MX19*%
X93980000Y-71437500D03*
D13*
X88900000Y-71437500D03*
D12*
X83820000Y-71437500D03*
%TD*%
%TO.C,MX21*%
X102870000Y-95250000D03*
D13*
X107950000Y-95250000D03*
D12*
X113030000Y-95250000D03*
%TD*%
%TO.C,MX15*%
X74295000Y-33337500D03*
D13*
X79375000Y-33337500D03*
D12*
X84455000Y-33337500D03*
%TD*%
D10*
%TO.C,D40*%
X168274999Y-101531249D03*
D11*
X168275000Y-93731250D03*
%TD*%
D12*
%TO.C,MX4*%
X131445000Y-52387500D03*
D13*
X136525000Y-52387500D03*
D12*
X141605000Y-52387500D03*
%TD*%
%TO.C,MX2*%
X131445000Y-33337500D03*
D13*
X136525000Y-33337500D03*
D12*
X141605000Y-33337500D03*
%TD*%
D10*
%TO.C,D23*%
X120649999Y-39618749D03*
D11*
X120650000Y-31818750D03*
%TD*%
D12*
%TO.C,MX11*%
X150495000Y-52387500D03*
D13*
X155575000Y-52387500D03*
D12*
X160655000Y-52387500D03*
%TD*%
%TO.C,MX9*%
X150495000Y-33337500D03*
D13*
X155575000Y-33337500D03*
D12*
X160655000Y-33337500D03*
%TD*%
%TO.C,MX38*%
X95726250Y-95250000D03*
D13*
X100806250Y-95250000D03*
D12*
X105886250Y-95250000D03*
%TD*%
D10*
%TO.C,D4*%
X139699999Y-58668749D03*
D11*
X139700000Y-50868750D03*
%TD*%
D13*
%TO.C,S8*%
X184150000Y-86995000D03*
X88900000Y-86995000D03*
%TD*%
D12*
%TO.C,MX20*%
X179070000Y-71437500D03*
D13*
X184150000Y-71437500D03*
D12*
X189230000Y-71437500D03*
%TD*%
D10*
%TO.C,D11*%
X158749999Y-58668749D03*
D11*
X158750000Y-50868750D03*
%TD*%
D10*
%TO.C,D3*%
X49212499Y-45312499D03*
D11*
X49212500Y-53112500D03*
%TD*%
D12*
%TO.C,MX3*%
X36195000Y-52387500D03*
D13*
X41275000Y-52387500D03*
D12*
X46355000Y-52387500D03*
%TD*%
D10*
%TO.C,D25*%
X196849999Y-39618749D03*
D11*
X196850000Y-31818750D03*
%TD*%
D10*
%TO.C,D19*%
X96837499Y-70712499D03*
D11*
X96837500Y-78512500D03*
%TD*%
D10*
%TO.C,D14*%
X79374999Y-101531249D03*
D11*
X79375000Y-93731250D03*
%TD*%
D10*
%TO.C,D22*%
X101599999Y-39618749D03*
D11*
X101600000Y-31818750D03*
%TD*%
D12*
%TO.C,MX30*%
X207645000Y-33337500D03*
D13*
X212725000Y-33337500D03*
D12*
X217805000Y-33337500D03*
%TD*%
%TO.C,MX39*%
X121920000Y-95250000D03*
D13*
X127000000Y-95250000D03*
D12*
X132080000Y-95250000D03*
%TD*%
D13*
%TO.C,S6*%
X117475000Y-86995000D03*
X93662500Y-86995000D03*
%TD*%
D12*
%TO.C,MX6*%
X140970000Y-71437500D03*
D13*
X146050000Y-71437500D03*
D12*
X151130000Y-71437500D03*
%TD*%
D13*
%TO.C,S4*%
X107950000Y-86995000D03*
X69850000Y-86995000D03*
%TD*%
D10*
%TO.C,D1*%
X44449999Y-39618749D03*
D11*
X44450000Y-31818750D03*
%TD*%
D10*
%TO.C,D10*%
X68262499Y-45312499D03*
D11*
X68262500Y-53112500D03*
%TD*%
D12*
%TO.C,MX10*%
X55245000Y-52387500D03*
D13*
X60325000Y-52387500D03*
D12*
X65405000Y-52387500D03*
%TD*%
%TO.C,MX17*%
X74295000Y-52387500D03*
D13*
X79375000Y-52387500D03*
D12*
X84455000Y-52387500D03*
%TD*%
%TO.C,MX27*%
X205263750Y-80962500D03*
D13*
X210343750Y-80962500D03*
D12*
X215423750Y-80962500D03*
%TD*%
D13*
%TO.C,S9*%
X184150000Y-86995000D03*
X69850000Y-86995000D03*
%TD*%
D10*
%TO.C,D7*%
X46831249Y-96768749D03*
D11*
X46831250Y-88968750D03*
%TD*%
D12*
%TO.C,MX23*%
X188595000Y-33337500D03*
D13*
X193675000Y-33337500D03*
D12*
X198755000Y-33337500D03*
%TD*%
%TO.C,MX1*%
X36195000Y-33337500D03*
D13*
X41275000Y-33337500D03*
D12*
X46355000Y-33337500D03*
%TD*%
%TO.C,MX22*%
X93345000Y-33337500D03*
D13*
X98425000Y-33337500D03*
D12*
X103505000Y-33337500D03*
%TD*%
D14*
%TO.C,J2*%
X196849999Y-62293749D03*
D15*
X196849999Y-66293749D03*
%TD*%
D10*
%TO.C,D5*%
X53974999Y-70712499D03*
D11*
X53975000Y-78512500D03*
%TD*%
D10*
%TO.C,D27*%
X189706249Y-98356249D03*
D11*
X189706250Y-90556250D03*
%TD*%
D10*
%TO.C,D21*%
X108812499Y-98424999D03*
D11*
X116612500Y-98425000D03*
%TD*%
D12*
%TO.C,MX25*%
X188595000Y-52387500D03*
D13*
X193675000Y-52387500D03*
D12*
X198755000Y-52387500D03*
%TD*%
D10*
%TO.C,D8*%
X63499999Y-39618749D03*
D11*
X63500000Y-31818750D03*
%TD*%
D13*
%TO.C,S7*%
X160337500Y-86995000D03*
X136525000Y-86995000D03*
%TD*%
D10*
%TO.C,D26*%
X215899999Y-39618749D03*
D11*
X215900000Y-31818750D03*
%TD*%
D12*
%TO.C,MX28*%
X160020000Y-95250000D03*
D13*
X165100000Y-95250000D03*
D12*
X170180000Y-95250000D03*
%TD*%
%TO.C,MX32*%
X207645000Y-52387500D03*
D13*
X212725000Y-52387500D03*
D12*
X217805000Y-52387500D03*
%TD*%
%TO.C,MX7*%
X38576250Y-90487500D03*
D13*
X43656250Y-90487500D03*
D12*
X48736250Y-90487500D03*
%TD*%
%TO.C,MX33*%
X121920000Y-71437500D03*
D13*
X127000000Y-71437500D03*
D12*
X132080000Y-71437500D03*
%TD*%
%TO.C,MX34*%
X131445000Y-95250000D03*
D13*
X136525000Y-95250000D03*
D12*
X141605000Y-95250000D03*
%TD*%
%TO.C,MX13*%
X160020000Y-71437500D03*
D13*
X165100000Y-71437500D03*
D12*
X170180000Y-71437500D03*
%TD*%
D16*
%TO.C,J1*%
X219386662Y-73189580D03*
D17*
X216846661Y-73189579D03*
X214306661Y-73189579D03*
X211766661Y-73189579D03*
X209226661Y-73189579D03*
X206686661Y-73189579D03*
X204146661Y-73189579D03*
D18*
X201352661Y-60489579D03*
X201352661Y-58584579D03*
D17*
X204146661Y-55409579D03*
X206686661Y-55409579D03*
X209226661Y-55409579D03*
X211766661Y-55409579D03*
%TD*%
D14*
%TO.C,J3*%
X90556249Y-59912499D03*
D15*
X90556249Y-63912499D03*
%TD*%
M02*
