M48
; DRILL file {KiCad (7.0.0)} date Wed Jun  7 21:16:29 2023
; FORMAT={-:-/ absolute / inch / decimal}
; #@! TF.CreationDate,2023-06-07T21:16:29+02:00
; #@! TF.GenerationSoftware,Kicad,Pcbnew,(7.0.0)
; #@! TF.FileFunction,NonPlated,1,2,NPTH
FMAT,2
INCH
; #@! TA.AperFunction,NonPlated,NPTH,ComponentDrill
T1C0.0689
; #@! TA.AperFunction,NonPlated,NPTH,ComponentDrill
T2C0.1570
%
G90
G05
T1
X1.425Y-1.3125
X1.425Y-2.0625
X1.5188Y-3.5625
X1.6125Y-2.8125
X1.825Y-1.3125
X1.825Y-2.0625
X1.9187Y-3.5625
X2.0125Y-2.8125
X2.175Y-1.3125
X2.175Y-2.0625
X2.55Y-2.8125
X2.55Y-3.75
X2.575Y-1.3125
X2.575Y-2.0625
X2.6437Y-3.75
X2.925Y-1.3125
X2.925Y-2.0625
X2.95Y-2.8125
X2.95Y-3.75
X3.0437Y-3.75
X3.3Y-2.8125
X3.3Y-3.75
X3.325Y-1.3125
X3.325Y-2.0625
X3.675Y-1.3125
X3.675Y-2.0625
X3.7Y-2.8125
X3.7Y-3.75
X3.7687Y-3.75
X3.9562Y-3.75
X4.05Y-2.8125
X4.05Y-3.75
X4.075Y-1.3125
X4.075Y-2.0625
X4.1688Y-3.75
X4.3563Y-3.75
X4.425Y-1.3125
X4.425Y-2.0625
X4.45Y-2.8125
X4.45Y-3.75
X4.8Y-2.8125
X4.8Y-3.75
X4.825Y-1.3125
X4.825Y-2.0625
X5.175Y-1.3125
X5.175Y-2.0625
X5.175Y-3.75
X5.2Y-2.8125
X5.2Y-3.75
X5.55Y-2.8125
X5.575Y-1.3125
X5.575Y-2.0625
X5.575Y-3.75
X5.6437Y-3.75
X5.8312Y-3.75
X5.925Y-1.3125
X5.925Y-2.0625
X5.95Y-2.8125
X6.0438Y-3.75
X6.2313Y-3.75
X6.3Y-2.8125
X6.3Y-3.75
X6.325Y-1.3125
X6.325Y-2.0625
X6.675Y-1.3125
X6.675Y-2.0625
X6.7Y-2.8125
X6.7Y-3.75
X6.9562Y-3.75
X7.05Y-2.8125
X7.075Y-1.3125
X7.075Y-2.0625
X7.3563Y-3.75
X7.425Y-1.3125
X7.425Y-2.0625
X7.45Y-2.8125
X7.825Y-1.3125
X7.825Y-2.0625
X8.0812Y-3.1875
X8.175Y-1.3125
X8.175Y-2.0625
X8.4812Y-3.1875
X8.575Y-1.3125
X8.575Y-2.0625
T2
X1.625Y-1.3125
X1.625Y-2.0625
X1.7188Y-3.5625
X1.8125Y-2.8125
X2.375Y-1.3125
X2.375Y-2.0625
X2.75Y-2.8125
X2.75Y-3.425
X2.75Y-3.425
X2.75Y-3.75
X2.8438Y-3.75
X3.125Y-1.3125
X3.125Y-2.0625
X3.5Y-2.8125
X3.5Y-3.425
X3.5Y-3.425
X3.5Y-3.75
X3.6875Y-3.425
X3.875Y-1.3125
X3.875Y-2.0625
X3.9688Y-3.75
X4.1562Y-3.75
X4.25Y-2.8125
X4.25Y-3.425
X4.25Y-3.75
X4.625Y-1.3125
X4.625Y-2.0625
X4.625Y-3.425
X5.0Y-2.8125
X5.0Y-3.425
X5.0Y-3.75
X5.375Y-1.3125
X5.375Y-2.0625
X5.375Y-3.425
X5.375Y-3.75
X5.75Y-2.8125
X5.75Y-3.425
X5.8438Y-3.75
X6.0312Y-3.75
X6.125Y-1.3125
X6.125Y-2.0625
X6.3125Y-3.425
X6.5Y-2.8125
X6.5Y-3.75
X6.875Y-1.3125
X6.875Y-2.0625
X7.1562Y-3.75
X7.25Y-2.8125
X7.25Y-3.425
X7.25Y-3.425
X7.25Y-3.425
X7.625Y-1.3125
X7.625Y-2.0625
X8.2812Y-3.1875
X8.375Y-1.3125
X8.375Y-2.0625
T0
M30
