%TF.GenerationSoftware,KiCad,Pcbnew,(7.0.0)*%
%TF.CreationDate,2023-07-09T02:25:53+02:00*%
%TF.ProjectId,pandemonium,70616e64-656d-46f6-9e69-756d2e6b6963,rev?*%
%TF.SameCoordinates,Original*%
%TF.FileFunction,Profile,NP*%
%FSLAX46Y46*%
G04 Gerber Fmt 4.6, Leading zero omitted, Abs format (unit mm)*
G04 Created by KiCad (PCBNEW (7.0.0)) date 2023-07-09 02:25:53*
%MOMM*%
%LPD*%
G01*
G04 APERTURE LIST*
%TA.AperFunction,Profile*%
%ADD10C,0.200000*%
%TD*%
%TA.AperFunction,Profile*%
%ADD11C,0.150000*%
%TD*%
%TA.AperFunction,Profile*%
%ADD12C,0.100000*%
%TD*%
G04 APERTURE END LIST*
D10*
X32543800Y-102393750D02*
G75*
G03*
X34925000Y-104775000I2381300J50D01*
G01*
X219075075Y-104775025D02*
G75*
G03*
X221456325Y-102393825I-75J2381325D01*
G01*
D11*
X201056875Y-71734050D02*
X201073750Y-56652800D01*
D10*
X219075000Y-25400000D02*
X34925000Y-25400000D01*
D12*
X87312500Y-57150000D02*
X87312500Y-66675000D01*
D11*
X202406250Y-55320300D02*
X219630625Y-55303425D01*
D12*
X202406250Y-55320250D02*
G75*
G03*
X201073750Y-56652800I50J-1332550D01*
G01*
D10*
X32543675Y-27781175D02*
X32543675Y-52387500D01*
X221456375Y-27781175D02*
G75*
G03*
X219075075Y-25399925I-2381375J-125D01*
G01*
D12*
X84931250Y-69056250D02*
X34925000Y-69056250D01*
X84931250Y-69056300D02*
G75*
G03*
X87312500Y-66675000I-50J2381300D01*
G01*
X34925000Y-69056250D02*
G75*
G03*
X32543750Y-71437500I-40J-2381210D01*
G01*
D10*
X221456325Y-102393825D02*
X221456250Y-74909050D01*
X34924925Y-25399925D02*
G75*
G03*
X32543675Y-27781175I75J-2381325D01*
G01*
X221456250Y-53477800D02*
X221456250Y-27781250D01*
D12*
X34925000Y-54768750D02*
X84931250Y-54768750D01*
X87312450Y-57150000D02*
G75*
G03*
X84931250Y-54768750I-2381350J-100D01*
G01*
X221456275Y-74909050D02*
G75*
G03*
X219630625Y-73083425I-1825675J-50D01*
G01*
D10*
X34925000Y-104775000D02*
X219075000Y-104775000D01*
D12*
X32543750Y-52387500D02*
G75*
G03*
X34925000Y-54768750I2381350J100D01*
G01*
D10*
X32543750Y-71437500D02*
X32543750Y-102393750D01*
D12*
X219630625Y-55303450D02*
G75*
G03*
X221456250Y-53477800I75J1825550D01*
G01*
X201056875Y-71734050D02*
G75*
G03*
X202406250Y-73083425I1349425J50D01*
G01*
D11*
X219630625Y-73083425D02*
X202406250Y-73083425D01*
M02*
