M48
; DRILL file {KiCad (7.0.0)} date Sun Jul  9 02:26:02 2023
; FORMAT={-:-/ absolute / inch / decimal}
; #@! TF.CreationDate,2023-07-09T02:26:02+02:00
; #@! TF.GenerationSoftware,Kicad,Pcbnew,(7.0.0)
; #@! TF.FileFunction,Plated,1,2,PTH
FMAT,2
INCH
; #@! TA.AperFunction,Plated,PTH,ComponentDrill
T1C0.0315
; #@! TA.AperFunction,Plated,PTH,ComponentDrill
T2C0.0394
; #@! TA.AperFunction,Plated,PTH,ComponentDrill
T3C0.0600
; #@! TA.AperFunction,Plated,PTH,ComponentDrill
T4C0.1200
%
G90
G05
T1
X3.5652Y-2.3588
X3.5652Y-2.5162
X7.75Y-2.4525
X7.75Y-2.61
T2
X1.75Y-1.2527
X1.75Y-1.5598
X1.8438Y-3.5027
X1.8438Y-3.8098
X1.9375Y-1.784
X1.9375Y-2.091
X2.125Y-2.784
X2.125Y-3.091
X2.5Y-1.2527
X2.5Y-1.5598
X2.6875Y-1.784
X2.6875Y-2.091
X2.9715Y-3.1562
X3.125Y-3.6902
X3.125Y-3.9973
X3.25Y-1.2527
X3.25Y-1.5598
X3.2785Y-3.1562
X3.4375Y-1.784
X3.4375Y-2.091
X3.8125Y-2.784
X3.8125Y-3.091
X4.0Y-1.2527
X4.0Y-1.5598
X4.0Y-2.0027
X4.0Y-2.3098
X4.284Y-3.875
X4.375Y-2.7527
X4.375Y-3.0598
X4.591Y-3.875
X4.75Y-1.2527
X4.75Y-1.5598
X4.75Y-2.0027
X4.75Y-2.3098
X5.125Y-2.7527
X5.125Y-3.0598
X5.4515Y-3.875
X5.5Y-1.2527
X5.5Y-1.5598
X5.5Y-2.0027
X5.5Y-2.3098
X5.7585Y-3.875
X5.875Y-2.7527
X5.875Y-3.0598
X6.25Y-1.2527
X6.25Y-1.5598
X6.25Y-2.0027
X6.25Y-2.3098
X6.625Y-2.7527
X6.625Y-3.0598
X6.625Y-3.6902
X6.625Y-3.9973
X7.0Y-1.2527
X7.0Y-1.5598
X7.0Y-2.0027
X7.0Y-2.3098
X7.375Y-2.7527
X7.375Y-3.0598
X7.4688Y-3.5652
X7.4688Y-3.8723
X7.75Y-1.2527
X7.75Y-1.5598
X7.75Y-2.0027
X7.75Y-2.3098
X8.0373Y-2.1815
X8.0373Y-2.8815
X8.1373Y-2.1815
X8.1373Y-2.8815
X8.159Y-1.7188
X8.2373Y-2.1815
X8.2373Y-2.8815
X8.3373Y-2.1815
X8.3373Y-2.8815
X8.4062Y-3.1277
X8.4062Y-3.4348
X8.4373Y-2.8815
X8.466Y-1.7188
X8.5Y-1.2527
X8.5Y-1.5598
X8.5373Y-2.8815
X8.6373Y-2.8815
T3
X1.475Y-1.2125
X1.475Y-1.9625
X1.5687Y-3.4625
X1.7125Y-3.0125
X1.725Y-1.1125
X1.725Y-1.8625
X1.8187Y-3.3625
X1.9625Y-2.9125
X2.225Y-1.2125
X2.225Y-1.9625
X2.475Y-1.1125
X2.475Y-1.8625
X2.6Y-3.65
X2.65Y-3.0125
X2.6938Y-3.65
X2.85Y-3.55
X2.9Y-2.9125
X2.9438Y-3.55
X2.975Y-1.2125
X2.975Y-1.9625
X3.225Y-1.1125
X3.225Y-1.8625
X3.35Y-3.65
X3.4Y-3.0125
X3.6Y-3.55
X3.65Y-2.9125
X3.725Y-1.2125
X3.725Y-1.9625
X3.8188Y-3.65
X3.975Y-1.1125
X3.975Y-1.8625
X4.0062Y-3.65
X4.0687Y-3.55
X4.1Y-2.7125
X4.1Y-3.65
X4.2562Y-3.55
X4.35Y-2.6125
X4.35Y-3.55
X4.475Y-1.2125
X4.475Y-1.9625
X4.725Y-1.1125
X4.725Y-1.8625
X4.85Y-2.7125
X4.85Y-3.65
X5.1Y-2.6125
X5.1Y-3.55
X5.225Y-1.2125
X5.225Y-1.9625
X5.225Y-3.65
X5.475Y-1.1125
X5.475Y-1.8625
X5.475Y-3.55
X5.6Y-2.7125
X5.6937Y-3.65
X5.85Y-2.6125
X5.8812Y-3.65
X5.9437Y-3.55
X5.975Y-1.2125
X5.975Y-1.9625
X6.1312Y-3.55
X6.225Y-1.1125
X6.225Y-1.8625
X6.35Y-2.7125
X6.35Y-3.65
X6.6Y-2.6125
X6.6Y-3.55
X6.725Y-1.2125
X6.725Y-1.9625
X6.975Y-1.1125
X6.975Y-1.8625
X7.0062Y-3.65
X7.1Y-2.7125
X7.2562Y-3.55
X7.35Y-2.6125
X7.475Y-1.2125
X7.475Y-1.9625
X7.725Y-1.1125
X7.725Y-1.8625
X8.1312Y-3.0875
X8.225Y-1.2125
X8.225Y-1.9625
X8.3812Y-2.9875
X8.475Y-1.1125
X8.475Y-1.8625
T4
X2.75Y-4.025
X2.75Y-4.025
X3.5Y-4.025
X3.5Y-4.025
X3.6875Y-4.025
X4.25Y-4.025
X4.625Y-4.025
X5.0Y-4.025
X5.375Y-4.025
X5.75Y-4.025
X6.3125Y-4.025
X7.25Y-4.025
X7.25Y-4.025
X7.25Y-4.025
T2
G00X7.9371Y-2.3065
M15
G01X7.9174Y-2.3065
M16
G05
G00X7.9371Y-2.3815
M15
G01X7.9174Y-2.3815
M16
G05
T0
M30
