M48
; DRILL file {KiCad 8.0.8} date 2025-05-09T16:57:17+0200
; FORMAT={-:-/ absolute / inch / decimal}
; #@! TF.CreationDate,2025-05-09T16:57:17+02:00
; #@! TF.GenerationSoftware,Kicad,Pcbnew,8.0.8
; #@! TF.FileFunction,Plated,1,2,PTH
FMAT,2
INCH
; #@! TA.AperFunction,Plated,PTH,ComponentDrill
T1C0.0118
; #@! TA.AperFunction,Plated,PTH,ViaDrill
T2C0.0157
; #@! TA.AperFunction,Plated,PTH,ComponentDrill
T3C0.0295
; #@! TA.AperFunction,Plated,PTH,ComponentDrill
T4C0.0394
; #@! TA.AperFunction,Plated,PTH,ComponentDrill
T5C0.0591
; #@! TA.AperFunction,Plated,PTH,ComponentDrill
T6C0.0600
; #@! TA.AperFunction,Plated,PTH,ComponentDrill
T7C0.1200
%
G90
G05
T1
X3.2055Y-1.5913
X3.2055Y-1.611
X3.2055Y-1.7015
X3.2055Y-1.7212
X3.2251Y-1.611
X3.2251Y-1.7015
X3.2448Y-1.611
X3.2448Y-1.7015
T2
X1.7188Y-1.5
X2.0Y-1.7291
X2.0Y-1.8157
X2.1562Y-1.5
X2.1875Y-2.6796
X2.375Y-2.6796
X2.6562Y-1.4929
X2.6562Y-1.8157
X3.125Y-2.6796
X3.4062Y-1.4929
X3.4062Y-1.7408
X3.875Y-2.6796
X4.1875Y-1.4929
X4.1875Y-1.7408
X4.3438Y-1.4929
X4.3438Y-1.7408
X4.625Y-2.6796
X4.6376Y-1.7464
X4.6412Y-1.5589
X4.669Y-1.6877
X4.7188Y-1.5312
X4.8064Y-1.8499
X4.8358Y-1.7448
X4.853Y-1.6531
X4.853Y-1.6924
X4.8903Y-1.538
X4.9106Y-1.7812
X4.9691Y-1.5668
X4.9697Y-1.6924
X5.0068Y-1.5662
X5.0311Y-1.8306
X5.0938Y-1.8306
X5.1407Y-1.6486
X5.1557Y-1.8306
X5.1951Y-1.8306
X5.2075Y-1.5653
X5.2485Y-1.5661
X5.2683Y-1.7579
X5.2887Y-1.5645
X5.3135Y-1.6964
X5.375Y-2.6796
X5.6562Y-1.5348
X5.6562Y-1.833
X6.125Y-2.6796
X6.4375Y-1.4062
X6.4375Y-1.934
X6.6562Y-1.5625
X6.875Y-2.6796
X6.8812Y-1.625
X7.1875Y-1.395
X7.1875Y-1.833
X7.3438Y-1.395
X7.3438Y-1.833
X7.75Y-2.125
X7.7518Y-2.2188
X7.7697Y-1.8006
X7.7747Y-1.7546
X7.7948Y-2.2188
X7.8125Y-1.5312
X7.8125Y-1.6055
X7.8125Y-1.6448
X7.8125Y-1.7103
X7.8125Y-1.7654
X7.8342Y-2.2188
X7.8357Y-1.8947
X7.8494Y-1.5916
X7.8735Y-2.2188
X7.9129Y-2.2188
X7.9192Y-1.8871
X7.9375Y-1.3332
X7.9375Y-1.4317
X7.9522Y-2.2188
X7.9996Y-2.2636
X7.9998Y-2.3423
X7.9998Y-2.3029
X7.9998Y-2.421
X8.0Y-1.2812
X8.0Y-1.408
X8.0Y-2.2213
X8.0Y-2.3816
X8.0349Y-2.0177
X8.0349Y-2.0622
X8.0349Y-2.1015
X8.0938Y-1.3332
X8.0938Y-1.5312
X8.0938Y-1.6562
X8.1406Y-1.6882
X8.1414Y-1.7788
X8.1875Y-1.5625
X8.2269Y-1.5625
X8.2812Y-1.5625
X8.3438Y-1.8713
X8.375Y-1.5625
X8.4062Y-1.6875
X8.4062Y-1.7812
X8.4166Y-1.5625
X8.5938Y-2.2188
X8.6562Y-2.2188
T3
X2.966Y-1.6169
X2.966Y-1.6956
T4
X2.4547Y-3.6516
X2.4547Y-3.75
X2.4547Y-3.8484
X3.0256Y-3.6516
X3.0256Y-3.8484
X4.7047Y-3.6516
X4.7047Y-3.75
X4.7047Y-3.8484
X5.2756Y-3.6516
X5.2756Y-3.8484
T6
X1.475Y-1.2125
X1.475Y-1.9625
X1.5687Y-3.4625
X1.6625Y-2.7125
X1.725Y-1.1125
X1.725Y-1.8625
X1.8187Y-3.3625
X1.9125Y-2.6125
X2.225Y-1.2125
X2.225Y-1.9625
X2.475Y-1.1125
X2.475Y-1.8625
X2.6Y-2.7125
X2.6Y-3.65
X2.6938Y-3.65
X2.85Y-2.6125
X2.85Y-3.55
X2.9438Y-3.55
X2.975Y-1.2125
X2.975Y-1.9625
X3.225Y-1.1125
X3.225Y-1.8625
X3.35Y-2.7125
X3.35Y-3.65
X3.6Y-2.6125
X3.6Y-3.55
X3.725Y-1.2125
X3.725Y-1.9625
X3.8188Y-3.65
X3.975Y-1.1125
X3.975Y-1.8625
X4.0062Y-3.65
X4.0687Y-3.55
X4.1Y-2.7125
X4.1Y-3.65
X4.2562Y-3.55
X4.35Y-2.6125
X4.35Y-3.55
X4.475Y-1.2125
X4.475Y-1.9625
X4.725Y-1.1125
X4.725Y-1.8625
X4.85Y-2.7125
X4.85Y-3.65
X5.1Y-2.6125
X5.1Y-3.55
X5.225Y-1.2125
X5.225Y-1.9625
X5.225Y-3.65
X5.475Y-1.1125
X5.475Y-1.8625
X5.475Y-3.55
X5.6Y-2.7125
X5.6937Y-3.65
X5.85Y-2.6125
X5.8812Y-3.65
X5.9437Y-3.55
X5.975Y-1.2125
X5.975Y-1.9625
X6.1312Y-3.55
X6.225Y-1.1125
X6.225Y-1.8625
X6.35Y-2.7125
X6.35Y-3.65
X6.6Y-2.6125
X6.6Y-3.55
X6.725Y-1.2125
X6.725Y-1.9625
X6.975Y-1.1125
X6.975Y-1.8625
X7.0062Y-3.65
X7.1Y-2.7125
X7.2562Y-3.55
X7.35Y-2.6125
X7.475Y-1.2125
X7.475Y-1.9625
X7.725Y-1.1125
X7.725Y-1.8625
X8.0375Y-2.7125
X8.1312Y-3.0875
X8.1312Y-3.4625
X8.225Y-1.2125
X8.275Y-2.2625
X8.2875Y-2.6125
X8.3812Y-2.9875
X8.3812Y-3.3625
X8.475Y-1.1125
X8.525Y-2.1625
T7
X2.75Y-4.025
X2.75Y-4.025
X3.5Y-4.025
X3.5Y-4.025
X3.6875Y-4.025
X4.25Y-4.025
X4.625Y-4.025
X5.0Y-4.025
X5.375Y-4.025
X5.75Y-4.025
X6.3125Y-4.025
X7.25Y-4.025
X7.25Y-4.025
X7.25Y-4.025
X8.5563Y-2.7188
X8.5563Y-3.6562
T5
G00X2.7244Y-3.5295
M15
G01X2.7756Y-3.5295
M16
G05
G00X2.7244Y-3.9705
M15
G01X2.7756Y-3.9705
M16
G05
G00X4.9744Y-3.5295
M15
G01X5.0256Y-3.5295
M16
G05
G00X4.9744Y-3.9705
M15
G01X5.0256Y-3.9705
M16
G05
M30
