%TF.GenerationSoftware,KiCad,Pcbnew,8.0.8*%
%TF.CreationDate,2025-05-03T23:26:03+02:00*%
%TF.ProjectId,pandemonium BLE e7 cutout,70616e64-656d-46f6-9e69-756d20424c45,rev?*%
%TF.SameCoordinates,Original*%
%TF.FileFunction,Paste,Bot*%
%TF.FilePolarity,Positive*%
%FSLAX46Y46*%
G04 Gerber Fmt 4.6, Leading zero omitted, Abs format (unit mm)*
G04 Created by KiCad (PCBNEW 8.0.8) date 2025-05-03 23:26:03*
%MOMM*%
%LPD*%
G01*
G04 APERTURE LIST*
G04 Aperture macros list*
%AMRoundRect*
0 Rectangle with rounded corners*
0 $1 Rounding radius*
0 $2 $3 $4 $5 $6 $7 $8 $9 X,Y pos of 4 corners*
0 Add a 4 corners polygon primitive as box body*
4,1,4,$2,$3,$4,$5,$6,$7,$8,$9,$2,$3,0*
0 Add four circle primitives for the rounded corners*
1,1,$1+$1,$2,$3*
1,1,$1+$1,$4,$5*
1,1,$1+$1,$6,$7*
1,1,$1+$1,$8,$9*
0 Add four rect primitives between the rounded corners*
20,1,$1+$1,$2,$3,$4,$5,0*
20,1,$1+$1,$4,$5,$6,$7,0*
20,1,$1+$1,$6,$7,$8,$9,0*
20,1,$1+$1,$8,$9,$2,$3,0*%
G04 Aperture macros list end*
%ADD10RoundRect,0.250000X0.300000X0.300000X-0.300000X0.300000X-0.300000X-0.300000X0.300000X-0.300000X0*%
%ADD11RoundRect,0.140000X0.170000X-0.140000X0.170000X0.140000X-0.170000X0.140000X-0.170000X-0.140000X0*%
%ADD12RoundRect,0.137500X0.137500X0.147500X-0.137500X0.147500X-0.137500X-0.147500X0.137500X-0.147500X0*%
%ADD13RoundRect,0.135000X0.185000X-0.135000X0.185000X0.135000X-0.185000X0.135000X-0.185000X-0.135000X0*%
%ADD14RoundRect,0.250000X-0.625000X0.375000X-0.625000X-0.375000X0.625000X-0.375000X0.625000X0.375000X0*%
%ADD15RoundRect,0.135000X0.135000X0.185000X-0.135000X0.185000X-0.135000X-0.185000X0.135000X-0.185000X0*%
%ADD16RoundRect,0.135000X-0.135000X-0.185000X0.135000X-0.185000X0.135000X0.185000X-0.135000X0.185000X0*%
%ADD17RoundRect,0.135000X-0.185000X0.135000X-0.185000X-0.135000X0.185000X-0.135000X0.185000X0.135000X0*%
%ADD18R,1.100000X0.600000*%
%ADD19RoundRect,0.250000X-0.300000X-0.300000X0.300000X-0.300000X0.300000X0.300000X-0.300000X0.300000X0*%
%ADD20RoundRect,0.140000X-0.170000X0.140000X-0.170000X-0.140000X0.170000X-0.140000X0.170000X0.140000X0*%
%ADD21RoundRect,0.218750X0.218750X0.256250X-0.218750X0.256250X-0.218750X-0.256250X0.218750X-0.256250X0*%
%ADD22RoundRect,0.140000X0.140000X0.170000X-0.140000X0.170000X-0.140000X-0.170000X0.140000X-0.170000X0*%
%ADD23RoundRect,0.150000X-0.587500X-0.150000X0.587500X-0.150000X0.587500X0.150000X-0.587500X0.150000X0*%
%ADD24RoundRect,0.090000X-0.210000X-0.535000X0.210000X-0.535000X0.210000X0.535000X-0.210000X0.535000X0*%
%ADD25RoundRect,0.105000X-0.445000X0.245000X-0.445000X-0.245000X0.445000X-0.245000X0.445000X0.245000X0*%
%ADD26RoundRect,0.070000X-0.330000X0.280000X-0.330000X-0.280000X0.330000X-0.280000X0.330000X0.280000X0*%
%ADD27RoundRect,0.150000X-0.275000X0.150000X-0.275000X-0.150000X0.275000X-0.150000X0.275000X0.150000X0*%
%ADD28RoundRect,0.175000X-0.225000X0.175000X-0.225000X-0.175000X0.225000X-0.175000X0.225000X0.175000X0*%
%ADD29R,0.600000X1.450000*%
%ADD30R,0.300000X1.450000*%
%ADD31RoundRect,0.150000X0.475000X0.150000X-0.475000X0.150000X-0.475000X-0.150000X0.475000X-0.150000X0*%
%ADD32RoundRect,0.140000X-0.140000X-0.170000X0.140000X-0.170000X0.140000X0.170000X-0.140000X0.170000X0*%
%ADD33RoundRect,0.160000X-0.485000X0.160000X-0.485000X-0.160000X0.485000X-0.160000X0.485000X0.160000X0*%
%ADD34RoundRect,0.062500X-0.062500X0.287500X-0.062500X-0.287500X0.062500X-0.287500X0.062500X0.287500X0*%
%ADD35RoundRect,0.160000X-0.160000X-0.160000X0.160000X-0.160000X0.160000X0.160000X-0.160000X0.160000X0*%
%ADD36RoundRect,0.062500X-0.375000X-0.062500X0.375000X-0.062500X0.375000X0.062500X-0.375000X0.062500X0*%
%ADD37RoundRect,0.062500X-0.062500X-0.375000X0.062500X-0.375000X0.062500X0.375000X-0.062500X0.375000X0*%
%ADD38RoundRect,0.200000X0.200000X-0.500000X0.200000X0.500000X-0.200000X0.500000X-0.200000X-0.500000X0*%
%ADD39RoundRect,0.200000X-0.500000X-0.200000X0.500000X-0.200000X0.500000X0.200000X-0.500000X0.200000X0*%
%ADD40RoundRect,0.200000X-0.200000X-0.200000X0.200000X-0.200000X0.200000X0.200000X-0.200000X0.200000X0*%
%ADD41RoundRect,0.147500X-0.172500X0.147500X-0.172500X-0.147500X0.172500X-0.147500X0.172500X0.147500X0*%
G04 APERTURE END LIST*
D10*
%TO.C,D6*%
X137925000Y-72825000D03*
X135125000Y-72825000D03*
%TD*%
D11*
%TO.C,C19*%
X127166250Y-41466938D03*
X127166250Y-40506938D03*
%TD*%
D12*
%TO.C,SW3*%
X204475000Y-32191250D03*
X201925000Y-32191250D03*
X204475000Y-33351250D03*
X201925000Y-33351250D03*
%TD*%
D13*
%TO.C,R4*%
X117795858Y-41552413D03*
X117795858Y-40532413D03*
%TD*%
D14*
%TO.C,F2*%
X122494773Y-35112500D03*
X122494773Y-37912500D03*
%TD*%
D10*
%TO.C,D17*%
X80775000Y-68062500D03*
X77975000Y-68062500D03*
%TD*%
D15*
%TO.C,R2*%
X119893358Y-44298996D03*
X118873358Y-44298996D03*
%TD*%
D16*
%TO.C,R8*%
X199467347Y-43489114D03*
X200487347Y-43489114D03*
%TD*%
D10*
%TO.C,D35*%
X118875000Y-72825000D03*
X116075000Y-72825000D03*
%TD*%
%TO.C,D9*%
X156975000Y-70443750D03*
X154175000Y-70443750D03*
%TD*%
%TO.C,D24*%
X137925000Y-75206250D03*
X135125000Y-75206250D03*
%TD*%
D17*
%TO.C,R16*%
X127793750Y-44704201D03*
X127793750Y-45724201D03*
%TD*%
D18*
%TO.C,Y1*%
X200025000Y-47425000D03*
X200025000Y-48825000D03*
%TD*%
D19*
%TO.C,D31*%
X190881250Y-70443750D03*
X193681250Y-70443750D03*
%TD*%
D10*
%TO.C,D13*%
X156975000Y-72825000D03*
X154175000Y-72825000D03*
%TD*%
D17*
%TO.C,R12*%
X39740282Y-40365000D03*
X39740282Y-41385000D03*
%TD*%
D15*
%TO.C,R3*%
X121956821Y-44314538D03*
X120936821Y-44314538D03*
%TD*%
D10*
%TO.C,D18*%
X176025000Y-68062500D03*
X173225000Y-68062500D03*
%TD*%
%TO.C,D12*%
X61725000Y-68062500D03*
X58925000Y-68062500D03*
%TD*%
D11*
%TO.C,C18*%
X126206250Y-41466938D03*
X126206250Y-40506938D03*
%TD*%
D10*
%TO.C,D20*%
X176025000Y-72825000D03*
X173225000Y-72825000D03*
%TD*%
D17*
%TO.C,R10*%
X42862500Y-40365000D03*
X42862500Y-41385000D03*
%TD*%
D10*
%TO.C,D37*%
X198443750Y-72825000D03*
X195643750Y-72825000D03*
%TD*%
%TO.C,D32*%
X198443750Y-70443750D03*
X195643750Y-70443750D03*
%TD*%
D20*
%TO.C,C8*%
X200597327Y-39825736D03*
X200597327Y-40785736D03*
%TD*%
D21*
%TO.C,L1*%
X200587507Y-38500629D03*
X199012507Y-38500629D03*
%TD*%
D10*
%TO.C,D29*%
X118875000Y-70443750D03*
X116075000Y-70443750D03*
%TD*%
%TO.C,D2*%
X137925000Y-70443750D03*
X135125000Y-70443750D03*
%TD*%
D22*
%TO.C,C9*%
X200503785Y-49979298D03*
X199543785Y-49979298D03*
%TD*%
D23*
%TO.C,Q1*%
X120033358Y-43018750D03*
X120033358Y-41118750D03*
X121908358Y-42068750D03*
%TD*%
D10*
%TO.C,D15*%
X80775000Y-72825000D03*
X77975000Y-72825000D03*
%TD*%
%TO.C,D28*%
X99825000Y-68062500D03*
X97025000Y-68062500D03*
%TD*%
%TO.C,D34*%
X99825000Y-72825000D03*
X97025000Y-72825000D03*
%TD*%
%TO.C,D16*%
X176025000Y-70443750D03*
X173225000Y-70443750D03*
%TD*%
D16*
%TO.C,R1*%
X199495793Y-44762106D03*
X200515793Y-44762106D03*
%TD*%
D15*
%TO.C,R13*%
X127783953Y-42987500D03*
X126763953Y-42987500D03*
%TD*%
D10*
%TO.C,D40*%
X156975000Y-75206250D03*
X154175000Y-75206250D03*
%TD*%
%TO.C,D23*%
X118875000Y-68062500D03*
X116075000Y-68062500D03*
%TD*%
%TO.C,D4*%
X137925000Y-68062500D03*
X135125000Y-68062500D03*
%TD*%
D24*
%TO.C,SW4*%
X48550000Y-37718750D03*
X51550000Y-37718750D03*
X53050000Y-37718750D03*
D25*
X54500000Y-36868750D03*
X54500000Y-34568750D03*
X47100000Y-36868750D03*
X47100000Y-34568750D03*
%TD*%
D11*
%TO.C,C7*%
X200343919Y-37116037D03*
X200343919Y-36156037D03*
%TD*%
D15*
%TO.C,R7*%
X116681250Y-26193750D03*
X115661250Y-26193750D03*
%TD*%
D26*
%TO.C,LED1*%
X42825000Y-37943750D03*
X42825000Y-39043750D03*
X39725000Y-39043750D03*
X39725000Y-37943750D03*
%TD*%
D16*
%TO.C,R15*%
X133280000Y-43087500D03*
X134300000Y-43087500D03*
%TD*%
D11*
%TO.C,C16*%
X133306250Y-41466297D03*
X133306250Y-40506297D03*
%TD*%
D10*
%TO.C,D11*%
X156975000Y-68062500D03*
X154175000Y-68062500D03*
%TD*%
D27*
%TO.C,J3*%
X78293750Y-41468750D03*
X78293750Y-42668750D03*
D28*
X82068750Y-40318750D03*
X82068750Y-43818750D03*
%TD*%
D10*
%TO.C,D3*%
X61725000Y-70443750D03*
X58925000Y-70443750D03*
%TD*%
D19*
%TO.C,D25*%
X190881250Y-68062500D03*
X193681250Y-68062500D03*
%TD*%
D11*
%TO.C,C12*%
X125212500Y-38095000D03*
X125212500Y-37135000D03*
%TD*%
D17*
%TO.C,R14*%
X130952264Y-44711960D03*
X130952264Y-45731960D03*
%TD*%
%TO.C,R11*%
X41275000Y-40409775D03*
X41275000Y-41429775D03*
%TD*%
D10*
%TO.C,D19*%
X80775000Y-70443750D03*
X77975000Y-70443750D03*
%TD*%
%TO.C,D14*%
X80775000Y-75206250D03*
X77975000Y-75206250D03*
%TD*%
%TO.C,D22*%
X99825000Y-70443750D03*
X97025000Y-70443750D03*
%TD*%
D22*
%TO.C,C17*%
X125123750Y-42987500D03*
X124163750Y-42987500D03*
%TD*%
D10*
%TO.C,D1*%
X61725000Y-73025000D03*
X58925000Y-73025000D03*
%TD*%
%TO.C,D10*%
X56962500Y-73025000D03*
X54162500Y-73025000D03*
%TD*%
D29*
%TO.C,J2*%
X122956250Y-31032500D03*
X123756250Y-31032500D03*
D30*
X124956250Y-31032500D03*
X125956250Y-31032500D03*
X126456250Y-31032500D03*
X127456250Y-31032500D03*
D29*
X128656250Y-31032500D03*
X129456250Y-31032500D03*
X129456250Y-31032500D03*
X128656250Y-31032500D03*
D30*
X127956250Y-31032500D03*
X126956250Y-31032500D03*
X125456250Y-31032500D03*
X124456250Y-31032500D03*
D29*
X123756250Y-31032500D03*
X122956250Y-31032500D03*
%TD*%
D31*
%TO.C,U2*%
X127381250Y-33181250D03*
X127381250Y-34131250D03*
X127381250Y-35081250D03*
X125031250Y-35081250D03*
X125031250Y-34131250D03*
X125031250Y-33181250D03*
%TD*%
D32*
%TO.C,C14*%
X132019158Y-44646880D03*
X132979158Y-44646880D03*
%TD*%
D19*
%TO.C,D7*%
X54162500Y-70443750D03*
X56962500Y-70443750D03*
%TD*%
D16*
%TO.C,R9*%
X134711250Y-26193750D03*
X135731250Y-26193750D03*
%TD*%
D19*
%TO.C,D5*%
X54162500Y-68062500D03*
X56962500Y-68062500D03*
%TD*%
%TO.C,D27*%
X190881250Y-72825000D03*
X193681250Y-72825000D03*
%TD*%
D10*
%TO.C,D21*%
X99825000Y-75206250D03*
X97025000Y-75206250D03*
%TD*%
D33*
%TO.C,U6*%
X124728475Y-45243750D03*
D34*
X123978475Y-44243750D03*
X124478475Y-44243750D03*
X124978475Y-44243750D03*
X125478475Y-44243750D03*
X125478475Y-46243750D03*
X124978475Y-46243750D03*
X124478475Y-46243750D03*
X123978475Y-46243750D03*
%TD*%
D35*
%TO.C,U7*%
X130175000Y-41475000D03*
X130175000Y-42275000D03*
X130975000Y-41475000D03*
X130975000Y-42275000D03*
D36*
X129137500Y-42625000D03*
X129137500Y-42125000D03*
X129137500Y-41625000D03*
X129137500Y-41125000D03*
D37*
X129825000Y-40437500D03*
X130325000Y-40437500D03*
X130825000Y-40437500D03*
X131325000Y-40437500D03*
D36*
X132012500Y-41125000D03*
X132012500Y-41625000D03*
X132012500Y-42125000D03*
X132012500Y-42625000D03*
D37*
X131325000Y-43312500D03*
X130825000Y-43312500D03*
X130325000Y-43312500D03*
X129825000Y-43312500D03*
%TD*%
D10*
%TO.C,D8*%
X56962500Y-75406250D03*
X54162500Y-75406250D03*
%TD*%
D38*
%TO.C,U1*%
X216167500Y-49062500D03*
X214897500Y-49062500D03*
X213627500Y-49062500D03*
X212357500Y-49062500D03*
X211087500Y-49062500D03*
X209817500Y-49062500D03*
X208547500Y-49062500D03*
X207277500Y-49062500D03*
X206007500Y-49062500D03*
X204737500Y-49062500D03*
D39*
X202437500Y-47302500D03*
D40*
X204237500Y-46672500D03*
D39*
X202437500Y-46032500D03*
D40*
X204237500Y-45402500D03*
D39*
X202437500Y-44762500D03*
D40*
X204237500Y-44132500D03*
D39*
X202437500Y-43492500D03*
D40*
X204237500Y-42862500D03*
D39*
X202437500Y-42222500D03*
D40*
X204237500Y-41592500D03*
D39*
X202437500Y-40952500D03*
D40*
X204237500Y-40322500D03*
D39*
X202437500Y-39682500D03*
D40*
X204237500Y-39052500D03*
D39*
X202437500Y-38412500D03*
D38*
X204737500Y-36662500D03*
X206007500Y-36662500D03*
D40*
X206642500Y-38462500D03*
D38*
X207277500Y-36662500D03*
D40*
X207912500Y-38462500D03*
D38*
X208547500Y-36662500D03*
D40*
X209182500Y-38462500D03*
D38*
X209817500Y-36662500D03*
D40*
X210452500Y-38462500D03*
D38*
X211087500Y-36662500D03*
D40*
X211722500Y-38462500D03*
D38*
X212357500Y-36662500D03*
D40*
X212992500Y-38462500D03*
D38*
X213627500Y-36662500D03*
D40*
X214262500Y-38462500D03*
D38*
X214897500Y-36662500D03*
D40*
X215532500Y-38462500D03*
D38*
X216167500Y-36662500D03*
%TD*%
D10*
%TO.C,D26*%
X198443750Y-68062500D03*
X195643750Y-68062500D03*
%TD*%
%TO.C,D30*%
X198443750Y-75206250D03*
X195643750Y-75206250D03*
%TD*%
D11*
%TO.C,C15*%
X134332884Y-41467201D03*
X134332884Y-40507201D03*
%TD*%
D32*
%TO.C,C13*%
X131994863Y-45589344D03*
X132954863Y-45589344D03*
%TD*%
D22*
%TO.C,C6*%
X200475453Y-41868750D03*
X199515453Y-41868750D03*
%TD*%
D41*
%TO.C,L2*%
X124218750Y-37130000D03*
X124218750Y-38100000D03*
%TD*%
D22*
%TO.C,C10*%
X200465671Y-46306958D03*
X199505671Y-46306958D03*
%TD*%
M02*
