%TF.GenerationSoftware,KiCad,Pcbnew,8.0.8*%
%TF.CreationDate,2025-03-15T17:30:11+01:00*%
%TF.ProjectId,pandemonium BLE e7 cutout,70616e64-656d-46f6-9e69-756d20424c45,rev?*%
%TF.SameCoordinates,Original*%
%TF.FileFunction,Profile,NP*%
%FSLAX46Y46*%
G04 Gerber Fmt 4.6, Leading zero omitted, Abs format (unit mm)*
G04 Created by KiCad (PCBNEW 8.0.8) date 2025-03-15 17:30:11*
%MOMM*%
%LPD*%
G01*
G04 APERTURE LIST*
%TA.AperFunction,Profile*%
%ADD10C,0.200000*%
%TD*%
%TA.AperFunction,Profile*%
%ADD11C,0.100000*%
%TD*%
G04 APERTURE END LIST*
D10*
X32543750Y-67468750D02*
G75*
G02*
X34925000Y-65087500I2381350J-100D01*
G01*
D11*
X216693750Y-35718750D02*
X220662500Y-35718750D01*
X220662500Y-50006250D01*
X216693750Y-50006250D01*
X216693750Y-35718750D01*
D10*
X34925000Y-104775000D02*
G75*
G02*
X32543800Y-102393750I100J2381300D01*
G01*
X130768750Y-25106250D02*
X121643750Y-25106250D01*
X221456325Y-102393825D02*
G75*
G02*
X219075075Y-104775025I-2381325J125D01*
G01*
X121350000Y-25400000D02*
X34924925Y-25399925D01*
X32543675Y-27781175D02*
X32543750Y-52387500D01*
X34925000Y-54768750D02*
G75*
G02*
X32543750Y-52387500I100J2381350D01*
G01*
X219075075Y-25399925D02*
G75*
G02*
X221456375Y-27781175I-75J-2381375D01*
G01*
X84931250Y-54768750D02*
G75*
G02*
X87312550Y-57150000I-150J-2381450D01*
G01*
X34925000Y-54768750D02*
X84931250Y-54768750D01*
X219075075Y-25399925D02*
X131062500Y-25400000D01*
X221456325Y-102393825D02*
X221456250Y-53477800D01*
D11*
X48418750Y-31950000D02*
X53181250Y-31950000D01*
X53181250Y-34331250D01*
X48418750Y-34331250D01*
X48418750Y-31950000D01*
D10*
X32543675Y-27781175D02*
G75*
G02*
X34924925Y-25399925I2381325J-75D01*
G01*
X87312650Y-62706350D02*
G75*
G02*
X84931400Y-65087650I-2381250J-50D01*
G01*
X221456250Y-53477800D02*
X221456250Y-27781250D01*
X130768750Y-25106250D02*
G75*
G02*
X131062550Y-25400000I50J-293750D01*
G01*
X34925000Y-104775000D02*
X219075000Y-104775000D01*
X121350000Y-25400000D02*
G75*
G02*
X121643750Y-25106300I293700J0D01*
G01*
X32543750Y-67468750D02*
X32543750Y-102393750D01*
X84931400Y-65087600D02*
X34925150Y-65087600D01*
X87312500Y-57150000D02*
X87312650Y-62706350D01*
M02*
