%TF.GenerationSoftware,KiCad,Pcbnew,8.0.8*%
%TF.CreationDate,2025-05-03T21:31:01+02:00*%
%TF.ProjectId,pandemonium EC 2 Layer,70616e64-656d-46f6-9e69-756d20454320,rev?*%
%TF.SameCoordinates,Original*%
%TF.FileFunction,Soldermask,Bot*%
%TF.FilePolarity,Negative*%
%FSLAX46Y46*%
G04 Gerber Fmt 4.6, Leading zero omitted, Abs format (unit mm)*
G04 Created by KiCad (PCBNEW 8.0.8) date 2025-05-03 21:31:01*
%MOMM*%
%LPD*%
G01*
G04 APERTURE LIST*
G04 Aperture macros list*
%AMRoundRect*
0 Rectangle with rounded corners*
0 $1 Rounding radius*
0 $2 $3 $4 $5 $6 $7 $8 $9 X,Y pos of 4 corners*
0 Add a 4 corners polygon primitive as box body*
4,1,4,$2,$3,$4,$5,$6,$7,$8,$9,$2,$3,0*
0 Add four circle primitives for the rounded corners*
1,1,$1+$1,$2,$3*
1,1,$1+$1,$4,$5*
1,1,$1+$1,$6,$7*
1,1,$1+$1,$8,$9*
0 Add four rect primitives between the rounded corners*
20,1,$1+$1,$2,$3,$4,$5,0*
20,1,$1+$1,$4,$5,$6,$7,0*
20,1,$1+$1,$6,$7,$8,$9,0*
20,1,$1+$1,$8,$9,$2,$3,0*%
G04 Aperture macros list end*
%ADD10C,2.200000*%
%ADD11C,3.048000*%
%ADD12C,3.987800*%
%ADD13R,1.700000X1.700000*%
%ADD14O,1.700000X1.700000*%
%ADD15RoundRect,0.140000X-0.140000X-0.170000X0.140000X-0.170000X0.140000X0.170000X-0.140000X0.170000X0*%
%ADD16RoundRect,0.150000X-0.587500X-0.150000X0.587500X-0.150000X0.587500X0.150000X-0.587500X0.150000X0*%
%ADD17RoundRect,0.140000X-0.170000X0.140000X-0.170000X-0.140000X0.170000X-0.140000X0.170000X0.140000X0*%
%ADD18RoundRect,0.075000X0.662500X0.075000X-0.662500X0.075000X-0.662500X-0.075000X0.662500X-0.075000X0*%
%ADD19RoundRect,0.075000X0.075000X0.662500X-0.075000X0.662500X-0.075000X-0.662500X0.075000X-0.662500X0*%
%ADD20RoundRect,0.135000X0.135000X0.185000X-0.135000X0.185000X-0.135000X-0.185000X0.135000X-0.185000X0*%
%ADD21RoundRect,0.135000X-0.135000X-0.185000X0.135000X-0.185000X0.135000X0.185000X-0.135000X0.185000X0*%
%ADD22C,0.650000*%
%ADD23R,0.600000X1.450000*%
%ADD24R,0.300000X1.450000*%
%ADD25O,1.000000X1.600000*%
%ADD26O,1.000000X2.100000*%
%ADD27RoundRect,0.140000X0.170000X-0.140000X0.170000X0.140000X-0.170000X0.140000X-0.170000X-0.140000X0*%
%ADD28RoundRect,0.150000X0.512500X0.150000X-0.512500X0.150000X-0.512500X-0.150000X0.512500X-0.150000X0*%
%ADD29RoundRect,0.140000X0.140000X0.170000X-0.140000X0.170000X-0.140000X-0.170000X0.140000X-0.170000X0*%
%ADD30RoundRect,0.135000X0.185000X-0.135000X0.185000X0.135000X-0.185000X0.135000X-0.185000X-0.135000X0*%
%ADD31RoundRect,0.135000X-0.185000X0.135000X-0.185000X-0.135000X0.185000X-0.135000X0.185000X0.135000X0*%
%ADD32R,1.778000X0.419100*%
%ADD33RoundRect,0.250000X-0.625000X0.375000X-0.625000X-0.375000X0.625000X-0.375000X0.625000X0.375000X0*%
%ADD34RoundRect,0.175000X-0.175000X-0.325000X0.175000X-0.325000X0.175000X0.325000X-0.175000X0.325000X0*%
%ADD35RoundRect,0.150000X-0.200000X-0.150000X0.200000X-0.150000X0.200000X0.150000X-0.200000X0.150000X0*%
%ADD36RoundRect,0.225000X0.250000X-0.225000X0.250000X0.225000X-0.250000X0.225000X-0.250000X-0.225000X0*%
G04 APERTURE END LIST*
D10*
%TO.C,H3*%
X88900000Y-33337500D03*
%TD*%
%TO.C,H5*%
X146050000Y-33337500D03*
%TD*%
%TO.C,H2*%
X69850000Y-52387500D03*
%TD*%
%TO.C,H12*%
X174625000Y-71437500D03*
%TD*%
%TO.C,H11*%
X117475000Y-71437500D03*
%TD*%
%TO.C,H20*%
X210343750Y-100012500D03*
%TD*%
%TO.C,H6*%
X165100000Y-52387500D03*
%TD*%
%TO.C,H8*%
X203200000Y-52387500D03*
%TD*%
%TO.C,H10*%
X79375000Y-71437500D03*
%TD*%
%TO.C,H18*%
X191293750Y-95250000D03*
%TD*%
%TO.C,H7*%
X184150000Y-33337500D03*
%TD*%
D11*
%TO.C,S4*%
X127000000Y-102235000D03*
D12*
X127000000Y-86995000D03*
D11*
X88900000Y-102235000D03*
D12*
X88900000Y-86995000D03*
%TD*%
D11*
%TO.C,S5*%
X184150000Y-102235000D03*
D12*
X184150000Y-86995000D03*
D11*
X146050000Y-102235000D03*
D12*
X146050000Y-86995000D03*
%TD*%
D10*
%TO.C,H9*%
X36512500Y-71437500D03*
%TD*%
%TO.C,H4*%
X107950000Y-52387500D03*
%TD*%
%TO.C,H16*%
X153193750Y-85725000D03*
%TD*%
D11*
%TO.C,S2*%
X160337500Y-102235000D03*
D12*
X160337500Y-86995000D03*
D11*
X136525000Y-102235000D03*
D12*
X136525000Y-86995000D03*
%TD*%
D11*
%TO.C,S1*%
X117475000Y-102235000D03*
D12*
X117475000Y-86995000D03*
D11*
X93662500Y-102235000D03*
D12*
X93662500Y-86995000D03*
%TD*%
D10*
%TO.C,H14*%
X60325000Y-95250000D03*
%TD*%
D12*
%TO.C,S3*%
X202088750Y-69056250D03*
X202088750Y-92868750D03*
D11*
X217328750Y-69056250D03*
X217328750Y-92868750D03*
%TD*%
D10*
%TO.C,H23*%
X83343750Y-95250000D03*
%TD*%
%TO.C,H24*%
X131762500Y-85725000D03*
%TD*%
%TO.C,H17*%
X117475000Y-95250000D03*
%TD*%
%TO.C,H15*%
X107950000Y-85725000D03*
%TD*%
%TO.C,H1*%
X50800000Y-33337500D03*
%TD*%
%TO.C,H19*%
X43656250Y-100012500D03*
%TD*%
D13*
%TO.C,SW1*%
X50800000Y-51112500D03*
D14*
X50800000Y-53652500D03*
%TD*%
D15*
%TO.C,C40*%
X62919561Y-79628486D03*
X63879561Y-79628486D03*
%TD*%
D16*
%TO.C,U9*%
X126062500Y-46507500D03*
X126062500Y-44607500D03*
X127937500Y-45557500D03*
%TD*%
D17*
%TO.C,C38*%
X52784658Y-83177500D03*
X52784658Y-84137500D03*
%TD*%
D18*
%TO.C,U8*%
X61312500Y-76625000D03*
X61312500Y-77125000D03*
X61312500Y-77625000D03*
X61312500Y-78125000D03*
X61312500Y-78625000D03*
X61312500Y-79125000D03*
X61312500Y-79625000D03*
X61312500Y-80125000D03*
X61312500Y-80625000D03*
X61312500Y-81125000D03*
X61312500Y-81625000D03*
X61312500Y-82125000D03*
D19*
X59900000Y-83537500D03*
X59400000Y-83537500D03*
X58900000Y-83537500D03*
X58400000Y-83537500D03*
X57900000Y-83537500D03*
X57400000Y-83537500D03*
X56900000Y-83537500D03*
X56400000Y-83537500D03*
X55900000Y-83537500D03*
X55400000Y-83537500D03*
X54900000Y-83537500D03*
X54400000Y-83537500D03*
D18*
X52987500Y-82125000D03*
X52987500Y-81625000D03*
X52987500Y-81125000D03*
X52987500Y-80625000D03*
X52987500Y-80125000D03*
X52987500Y-79625000D03*
X52987500Y-79125000D03*
X52987500Y-78625000D03*
X52987500Y-78125000D03*
X52987500Y-77625000D03*
X52987500Y-77125000D03*
X52987500Y-76625000D03*
D19*
X54400000Y-75212500D03*
X54900000Y-75212500D03*
X55400000Y-75212500D03*
X55900000Y-75212500D03*
X56400000Y-75212500D03*
X56900000Y-75212500D03*
X57400000Y-75212500D03*
X57900000Y-75212500D03*
X58400000Y-75212500D03*
X58900000Y-75212500D03*
X59400000Y-75212500D03*
X59900000Y-75212500D03*
%TD*%
D20*
%TO.C,R30*%
X133860000Y-26193750D03*
X132840000Y-26193750D03*
%TD*%
D21*
%TO.C,R20*%
X57717500Y-73682441D03*
X58737500Y-73682441D03*
%TD*%
D22*
%TO.C,J1*%
X124110000Y-28000000D03*
X129890000Y-28000000D03*
D23*
X123750000Y-29445000D03*
X124550000Y-29445000D03*
D24*
X125750000Y-29445000D03*
X126750000Y-29445000D03*
X127250000Y-29445000D03*
X128250000Y-29445000D03*
D23*
X129450000Y-29445000D03*
X130250000Y-29445000D03*
X130250000Y-29445000D03*
X129450000Y-29445000D03*
D24*
X128750000Y-29445000D03*
X127750000Y-29445000D03*
X126250000Y-29445000D03*
X125250000Y-29445000D03*
D23*
X124550000Y-29445000D03*
X123750000Y-29445000D03*
D25*
X122680000Y-24350000D03*
D26*
X122680000Y-28530000D03*
D25*
X131320000Y-24350000D03*
D26*
X131320000Y-28530000D03*
%TD*%
D17*
%TO.C,C34*%
X62864081Y-80630576D03*
X62864081Y-81590576D03*
%TD*%
D27*
%TO.C,C42*%
X124618750Y-46037500D03*
X124618750Y-45077500D03*
%TD*%
D20*
%TO.C,R25*%
X196960000Y-80801700D03*
X195940000Y-80801700D03*
%TD*%
D17*
%TO.C,C39*%
X63923750Y-80630576D03*
X63923750Y-81590576D03*
%TD*%
D20*
%TO.C,R15*%
X62872500Y-83300000D03*
X61852500Y-83300000D03*
%TD*%
D17*
%TO.C,C31*%
X75406250Y-81276250D03*
X75406250Y-82236250D03*
%TD*%
D27*
%TO.C,C41*%
X129531250Y-46037500D03*
X129531250Y-45077500D03*
%TD*%
D28*
%TO.C,U5*%
X62706250Y-85725000D03*
X62706250Y-86675000D03*
X62706250Y-87625000D03*
X60431250Y-87625000D03*
X60431250Y-85725000D03*
%TD*%
D29*
%TO.C,C44*%
X129861250Y-41462500D03*
X128901250Y-41462500D03*
%TD*%
D27*
%TO.C,C30*%
X64195574Y-87626430D03*
X64195574Y-86666430D03*
%TD*%
D30*
%TO.C,R3*%
X54407441Y-73416326D03*
X54407441Y-72396326D03*
%TD*%
D31*
%TO.C,R17*%
X81756250Y-88390000D03*
X81756250Y-89410000D03*
%TD*%
%TO.C,R21*%
X85725000Y-85215000D03*
X85725000Y-86235000D03*
%TD*%
D17*
%TO.C,C32*%
X190500000Y-81384200D03*
X190500000Y-82344200D03*
%TD*%
D20*
%TO.C,R18*%
X80678750Y-80693750D03*
X79658750Y-80693750D03*
%TD*%
D32*
%TO.C,U6*%
X83936840Y-82657950D03*
X83936840Y-83308190D03*
X83936840Y-83958430D03*
X83936840Y-84608670D03*
X83936840Y-85253830D03*
X83936840Y-85904070D03*
X83936840Y-86554310D03*
X83936840Y-87204550D03*
X77988160Y-87204550D03*
X77988160Y-86554310D03*
X77988160Y-85904070D03*
X77988160Y-85253830D03*
X77988160Y-84608670D03*
X77988160Y-83958430D03*
X77988160Y-83308190D03*
X77988160Y-82657950D03*
%TD*%
D27*
%TO.C,C33*%
X61545824Y-75540288D03*
X61545824Y-74580288D03*
%TD*%
D20*
%TO.C,R1*%
X47057500Y-80968750D03*
X46037500Y-80968750D03*
%TD*%
D30*
%TO.C,R14*%
X58993750Y-88228750D03*
X58993750Y-87208750D03*
%TD*%
D27*
%TO.C,C29*%
X58993750Y-86211250D03*
X58993750Y-85251250D03*
%TD*%
D21*
%TO.C,R29*%
X120140000Y-26193750D03*
X121160000Y-26193750D03*
%TD*%
D20*
%TO.C,R13*%
X62872500Y-84393750D03*
X61852500Y-84393750D03*
%TD*%
D27*
%TO.C,C35*%
X52784658Y-75521036D03*
X52784658Y-74561036D03*
%TD*%
D21*
%TO.C,R27*%
X193958750Y-80801700D03*
X194978750Y-80801700D03*
%TD*%
D31*
%TO.C,R19*%
X75406250Y-85215000D03*
X75406250Y-86235000D03*
%TD*%
D20*
%TO.C,R4*%
X47057500Y-81956250D03*
X46037500Y-81956250D03*
%TD*%
D33*
%TO.C,F3*%
X129381250Y-36887500D03*
X129381250Y-39687500D03*
%TD*%
D20*
%TO.C,R2*%
X47057500Y-78968750D03*
X46037500Y-78968750D03*
%TD*%
D30*
%TO.C,R28*%
X200818750Y-85157500D03*
X200818750Y-84137500D03*
%TD*%
D32*
%TO.C,U7*%
X198236840Y-82765900D03*
X198236840Y-83416140D03*
X198236840Y-84066380D03*
X198236840Y-84716620D03*
X198236840Y-85361780D03*
X198236840Y-86012020D03*
X198236840Y-86662260D03*
X198236840Y-87312500D03*
X192288160Y-87312500D03*
X192288160Y-86662260D03*
X192288160Y-86012020D03*
X192288160Y-85361780D03*
X192288160Y-84716620D03*
X192288160Y-84066380D03*
X192288160Y-83416140D03*
X192288160Y-82765900D03*
%TD*%
D31*
%TO.C,R26*%
X195262500Y-88497950D03*
X195262500Y-89517950D03*
%TD*%
D34*
%TO.C,U11*%
X126000000Y-34087500D03*
D35*
X126000000Y-32387500D03*
X128000000Y-32387500D03*
X128000000Y-34287500D03*
%TD*%
D31*
%TO.C,R24*%
X190500000Y-85498750D03*
X190500000Y-86518750D03*
%TD*%
D36*
%TO.C,C37*%
X62894069Y-75284151D03*
X62894069Y-73734151D03*
%TD*%
D29*
%TO.C,C36*%
X60668750Y-73682441D03*
X59708750Y-73682441D03*
%TD*%
D30*
%TO.C,R16*%
X75406250Y-84363750D03*
X75406250Y-83343750D03*
%TD*%
M02*
