%TF.GenerationSoftware,KiCad,Pcbnew,8.0.8*%
%TF.CreationDate,2025-05-09T16:59:43+02:00*%
%TF.ProjectId,pandemonium EC 2 Layer,70616e64-656d-46f6-9e69-756d20454320,rev?*%
%TF.SameCoordinates,Original*%
%TF.FileFunction,Paste,Bot*%
%TF.FilePolarity,Positive*%
%FSLAX46Y46*%
G04 Gerber Fmt 4.6, Leading zero omitted, Abs format (unit mm)*
G04 Created by KiCad (PCBNEW 8.0.8) date 2025-05-09 16:59:43*
%MOMM*%
%LPD*%
G01*
G04 APERTURE LIST*
G04 Aperture macros list*
%AMRoundRect*
0 Rectangle with rounded corners*
0 $1 Rounding radius*
0 $2 $3 $4 $5 $6 $7 $8 $9 X,Y pos of 4 corners*
0 Add a 4 corners polygon primitive as box body*
4,1,4,$2,$3,$4,$5,$6,$7,$8,$9,$2,$3,0*
0 Add four circle primitives for the rounded corners*
1,1,$1+$1,$2,$3*
1,1,$1+$1,$4,$5*
1,1,$1+$1,$6,$7*
1,1,$1+$1,$8,$9*
0 Add four rect primitives between the rounded corners*
20,1,$1+$1,$2,$3,$4,$5,0*
20,1,$1+$1,$4,$5,$6,$7,0*
20,1,$1+$1,$6,$7,$8,$9,0*
20,1,$1+$1,$8,$9,$2,$3,0*%
G04 Aperture macros list end*
%ADD10RoundRect,0.140000X-0.140000X-0.170000X0.140000X-0.170000X0.140000X0.170000X-0.140000X0.170000X0*%
%ADD11RoundRect,0.150000X-0.587500X-0.150000X0.587500X-0.150000X0.587500X0.150000X-0.587500X0.150000X0*%
%ADD12RoundRect,0.140000X-0.170000X0.140000X-0.170000X-0.140000X0.170000X-0.140000X0.170000X0.140000X0*%
%ADD13RoundRect,0.075000X0.662500X0.075000X-0.662500X0.075000X-0.662500X-0.075000X0.662500X-0.075000X0*%
%ADD14RoundRect,0.075000X0.075000X0.662500X-0.075000X0.662500X-0.075000X-0.662500X0.075000X-0.662500X0*%
%ADD15RoundRect,0.135000X-0.135000X-0.185000X0.135000X-0.185000X0.135000X0.185000X-0.135000X0.185000X0*%
%ADD16RoundRect,0.140000X0.170000X-0.140000X0.170000X0.140000X-0.170000X0.140000X-0.170000X-0.140000X0*%
%ADD17RoundRect,0.135000X0.135000X0.185000X-0.135000X0.185000X-0.135000X-0.185000X0.135000X-0.185000X0*%
%ADD18RoundRect,0.150000X0.512500X0.150000X-0.512500X0.150000X-0.512500X-0.150000X0.512500X-0.150000X0*%
%ADD19RoundRect,0.135000X0.185000X-0.135000X0.185000X0.135000X-0.185000X0.135000X-0.185000X-0.135000X0*%
%ADD20RoundRect,0.135000X-0.185000X0.135000X-0.185000X-0.135000X0.185000X-0.135000X0.185000X0.135000X0*%
%ADD21R,1.778000X0.419100*%
%ADD22RoundRect,0.150000X-0.625000X0.150000X-0.625000X-0.150000X0.625000X-0.150000X0.625000X0.150000X0*%
%ADD23RoundRect,0.250000X-0.650000X0.350000X-0.650000X-0.350000X0.650000X-0.350000X0.650000X0.350000X0*%
%ADD24RoundRect,0.225000X0.250000X-0.225000X0.250000X0.225000X-0.250000X0.225000X-0.250000X-0.225000X0*%
%ADD25RoundRect,0.140000X0.140000X0.170000X-0.140000X0.170000X-0.140000X-0.170000X0.140000X-0.170000X0*%
G04 APERTURE END LIST*
D10*
%TO.C,C40*%
X62919561Y-79428486D03*
X63879561Y-79428486D03*
%TD*%
D11*
%TO.C,U9*%
X68912500Y-46193750D03*
X68912500Y-44293750D03*
X70787500Y-45243750D03*
%TD*%
D12*
%TO.C,C38*%
X52784658Y-82977500D03*
X52784658Y-83937500D03*
%TD*%
D13*
%TO.C,U8*%
X61312500Y-76425000D03*
X61312500Y-76925000D03*
X61312500Y-77425000D03*
X61312500Y-77925000D03*
X61312500Y-78425000D03*
X61312500Y-78925000D03*
X61312500Y-79425000D03*
X61312500Y-79925000D03*
X61312500Y-80425000D03*
X61312500Y-80925000D03*
X61312500Y-81425000D03*
X61312500Y-81925000D03*
D14*
X59900000Y-83337500D03*
X59400000Y-83337500D03*
X58900000Y-83337500D03*
X58400000Y-83337500D03*
X57900000Y-83337500D03*
X57400000Y-83337500D03*
X56900000Y-83337500D03*
X56400000Y-83337500D03*
X55900000Y-83337500D03*
X55400000Y-83337500D03*
X54900000Y-83337500D03*
X54400000Y-83337500D03*
D13*
X52987500Y-81925000D03*
X52987500Y-81425000D03*
X52987500Y-80925000D03*
X52987500Y-80425000D03*
X52987500Y-79925000D03*
X52987500Y-79425000D03*
X52987500Y-78925000D03*
X52987500Y-78425000D03*
X52987500Y-77925000D03*
X52987500Y-77425000D03*
X52987500Y-76925000D03*
X52987500Y-76425000D03*
D14*
X54400000Y-75012500D03*
X54900000Y-75012500D03*
X55400000Y-75012500D03*
X55900000Y-75012500D03*
X56400000Y-75012500D03*
X56900000Y-75012500D03*
X57400000Y-75012500D03*
X57900000Y-75012500D03*
X58400000Y-75012500D03*
X58900000Y-75012500D03*
X59400000Y-75012500D03*
X59900000Y-75012500D03*
%TD*%
D15*
%TO.C,R20*%
X57717500Y-73482441D03*
X58737500Y-73482441D03*
%TD*%
D12*
%TO.C,C34*%
X62864081Y-80430576D03*
X62864081Y-81390576D03*
%TD*%
D16*
%TO.C,C42*%
X67468750Y-45723750D03*
X67468750Y-44763750D03*
%TD*%
D17*
%TO.C,R25*%
X196960000Y-80601700D03*
X195940000Y-80601700D03*
%TD*%
D12*
%TO.C,C39*%
X63923750Y-80430576D03*
X63923750Y-81390576D03*
%TD*%
D17*
%TO.C,R15*%
X62872500Y-83100000D03*
X61852500Y-83100000D03*
%TD*%
D12*
%TO.C,C31*%
X75406250Y-81076250D03*
X75406250Y-82036250D03*
%TD*%
D16*
%TO.C,C41*%
X72381250Y-45723750D03*
X72381250Y-44763750D03*
%TD*%
D18*
%TO.C,U5*%
X62706250Y-85525000D03*
X62706250Y-86475000D03*
X62706250Y-87425000D03*
X60431250Y-87425000D03*
X60431250Y-85525000D03*
%TD*%
D16*
%TO.C,C30*%
X64195574Y-87426430D03*
X64195574Y-86466430D03*
%TD*%
D19*
%TO.C,R3*%
X54407441Y-73216326D03*
X54407441Y-72196326D03*
%TD*%
D20*
%TO.C,R17*%
X81756250Y-88190000D03*
X81756250Y-89210000D03*
%TD*%
%TO.C,R21*%
X85725000Y-85015000D03*
X85725000Y-86035000D03*
%TD*%
D12*
%TO.C,C32*%
X190500000Y-81184200D03*
X190500000Y-82144200D03*
%TD*%
D17*
%TO.C,R18*%
X80678750Y-80493750D03*
X79658750Y-80493750D03*
%TD*%
D21*
%TO.C,U6*%
X83936840Y-82457950D03*
X83936840Y-83108190D03*
X83936840Y-83758430D03*
X83936840Y-84408670D03*
X83936840Y-85053830D03*
X83936840Y-85704070D03*
X83936840Y-86354310D03*
X83936840Y-87004550D03*
X77988160Y-87004550D03*
X77988160Y-86354310D03*
X77988160Y-85704070D03*
X77988160Y-85053830D03*
X77988160Y-84408670D03*
X77988160Y-83758430D03*
X77988160Y-83108190D03*
X77988160Y-82457950D03*
%TD*%
D16*
%TO.C,C33*%
X61545824Y-75340288D03*
X61545824Y-74380288D03*
%TD*%
D17*
%TO.C,R1*%
X47057500Y-80768750D03*
X46037500Y-80768750D03*
%TD*%
D19*
%TO.C,R14*%
X58993750Y-88028750D03*
X58993750Y-87008750D03*
%TD*%
D16*
%TO.C,C29*%
X58993750Y-86011250D03*
X58993750Y-85051250D03*
%TD*%
D22*
%TO.C,J2*%
X86106250Y-41362500D03*
X86106250Y-42362500D03*
X86106250Y-43362500D03*
X86106250Y-44362500D03*
D23*
X89981250Y-40062500D03*
X89981250Y-45662500D03*
%TD*%
D17*
%TO.C,R13*%
X62872500Y-84193750D03*
X61852500Y-84193750D03*
%TD*%
D16*
%TO.C,C35*%
X52784658Y-75321036D03*
X52784658Y-74361036D03*
%TD*%
D15*
%TO.C,R27*%
X193958750Y-80601700D03*
X194978750Y-80601700D03*
%TD*%
D20*
%TO.C,R19*%
X75406250Y-85015000D03*
X75406250Y-86035000D03*
%TD*%
D17*
%TO.C,R4*%
X47057500Y-81756250D03*
X46037500Y-81756250D03*
%TD*%
%TO.C,R2*%
X47057500Y-78768750D03*
X46037500Y-78768750D03*
%TD*%
D19*
%TO.C,R28*%
X200818750Y-84957500D03*
X200818750Y-83937500D03*
%TD*%
D21*
%TO.C,U7*%
X198236840Y-82565900D03*
X198236840Y-83216140D03*
X198236840Y-83866380D03*
X198236840Y-84516620D03*
X198236840Y-85161780D03*
X198236840Y-85812020D03*
X198236840Y-86462260D03*
X198236840Y-87112500D03*
X192288160Y-87112500D03*
X192288160Y-86462260D03*
X192288160Y-85812020D03*
X192288160Y-85161780D03*
X192288160Y-84516620D03*
X192288160Y-83866380D03*
X192288160Y-83216140D03*
X192288160Y-82565900D03*
%TD*%
D20*
%TO.C,R26*%
X195262500Y-88297950D03*
X195262500Y-89317950D03*
%TD*%
%TO.C,R24*%
X190500000Y-85298750D03*
X190500000Y-86318750D03*
%TD*%
D24*
%TO.C,C37*%
X62894069Y-75084151D03*
X62894069Y-73534151D03*
%TD*%
D25*
%TO.C,C36*%
X60668750Y-73482441D03*
X59708750Y-73482441D03*
%TD*%
D19*
%TO.C,R16*%
X75406250Y-84163750D03*
X75406250Y-83143750D03*
%TD*%
M02*
