M48
; DRILL file {KiCad 8.0.8} date 2025-05-03T21:31:03+0200
; FORMAT={-:-/ absolute / inch / decimal}
; #@! TF.CreationDate,2025-05-03T21:31:03+02:00
; #@! TF.GenerationSoftware,Kicad,Pcbnew,8.0.8
; #@! TF.FileFunction,NonPlated,1,2,NPTH
FMAT,2
INCH
; #@! TA.AperFunction,NonPlated,NPTH,ComponentDrill
T1C0.0256
; #@! TA.AperFunction,NonPlated,NPTH,ComponentDrill
T2C0.0866
; #@! TA.AperFunction,NonPlated,NPTH,ComponentDrill
T3C0.1200
; #@! TA.AperFunction,NonPlated,NPTH,ComponentDrill
T4C0.1570
%
G90
G05
T1
X4.8862Y-1.1024
X5.1138Y-1.1024
T2
X1.4375Y-2.8125
X1.7188Y-3.9375
X2.0Y-1.3125
X2.375Y-3.75
X2.75Y-2.0625
X3.125Y-2.8125
X3.2812Y-3.75
X3.5Y-1.3125
X4.25Y-2.0625
X4.25Y-3.375
X4.625Y-2.8125
X4.625Y-3.75
X5.1875Y-3.375
X5.75Y-1.3125
X6.0312Y-3.375
X6.5Y-2.0625
X6.875Y-2.8125
X7.25Y-1.3125
X7.5312Y-3.75
X8.0Y-2.0625
X8.2812Y-3.9375
T3
X3.5Y-4.025
X3.6875Y-4.025
X4.625Y-4.025
X5.0Y-4.025
X5.375Y-4.025
X5.75Y-4.025
X6.3125Y-4.025
X7.25Y-4.025
X8.5563Y-2.7188
X8.5563Y-3.6562
T4
X3.5Y-3.425
X3.6875Y-3.425
X4.625Y-3.425
X5.0Y-3.425
X5.375Y-3.425
X5.75Y-3.425
X6.3125Y-3.425
X7.25Y-3.425
X7.9562Y-2.7188
X7.9562Y-3.6562
M30
