%TF.GenerationSoftware,KiCad,Pcbnew,8.0.8*%
%TF.CreationDate,2025-03-15T17:26:48+01:00*%
%TF.ProjectId,pandemonium EC 2 Layer,70616e64-656d-46f6-9e69-756d20454320,rev?*%
%TF.SameCoordinates,Original*%
%TF.FileFunction,Soldermask,Bot*%
%TF.FilePolarity,Negative*%
%FSLAX46Y46*%
G04 Gerber Fmt 4.6, Leading zero omitted, Abs format (unit mm)*
G04 Created by KiCad (PCBNEW 8.0.8) date 2025-03-15 17:26:48*
%MOMM*%
%LPD*%
G01*
G04 APERTURE LIST*
G04 Aperture macros list*
%AMRoundRect*
0 Rectangle with rounded corners*
0 $1 Rounding radius*
0 $2 $3 $4 $5 $6 $7 $8 $9 X,Y pos of 4 corners*
0 Add a 4 corners polygon primitive as box body*
4,1,4,$2,$3,$4,$5,$6,$7,$8,$9,$2,$3,0*
0 Add four circle primitives for the rounded corners*
1,1,$1+$1,$2,$3*
1,1,$1+$1,$4,$5*
1,1,$1+$1,$6,$7*
1,1,$1+$1,$8,$9*
0 Add four rect primitives between the rounded corners*
20,1,$1+$1,$2,$3,$4,$5,0*
20,1,$1+$1,$4,$5,$6,$7,0*
20,1,$1+$1,$6,$7,$8,$9,0*
20,1,$1+$1,$8,$9,$2,$3,0*%
G04 Aperture macros list end*
%ADD10C,2.200000*%
%ADD11R,1.700000X1.700000*%
%ADD12O,1.700000X1.700000*%
%ADD13RoundRect,0.140000X-0.140000X-0.170000X0.140000X-0.170000X0.140000X0.170000X-0.140000X0.170000X0*%
%ADD14RoundRect,0.150000X-0.587500X-0.150000X0.587500X-0.150000X0.587500X0.150000X-0.587500X0.150000X0*%
%ADD15RoundRect,0.140000X-0.170000X0.140000X-0.170000X-0.140000X0.170000X-0.140000X0.170000X0.140000X0*%
%ADD16RoundRect,0.075000X0.662500X0.075000X-0.662500X0.075000X-0.662500X-0.075000X0.662500X-0.075000X0*%
%ADD17RoundRect,0.075000X0.075000X0.662500X-0.075000X0.662500X-0.075000X-0.662500X0.075000X-0.662500X0*%
%ADD18RoundRect,0.135000X0.135000X0.185000X-0.135000X0.185000X-0.135000X-0.185000X0.135000X-0.185000X0*%
%ADD19RoundRect,0.135000X-0.135000X-0.185000X0.135000X-0.185000X0.135000X0.185000X-0.135000X0.185000X0*%
%ADD20C,0.650000*%
%ADD21R,0.600000X1.450000*%
%ADD22R,0.300000X1.450000*%
%ADD23O,1.000000X2.100000*%
%ADD24O,1.000000X1.600000*%
%ADD25RoundRect,0.140000X0.170000X-0.140000X0.170000X0.140000X-0.170000X0.140000X-0.170000X-0.140000X0*%
%ADD26RoundRect,0.150000X0.512500X0.150000X-0.512500X0.150000X-0.512500X-0.150000X0.512500X-0.150000X0*%
%ADD27RoundRect,0.140000X0.140000X0.170000X-0.140000X0.170000X-0.140000X-0.170000X0.140000X-0.170000X0*%
%ADD28RoundRect,0.135000X0.185000X-0.135000X0.185000X0.135000X-0.185000X0.135000X-0.185000X-0.135000X0*%
%ADD29RoundRect,0.135000X-0.185000X0.135000X-0.185000X-0.135000X0.185000X-0.135000X0.185000X0.135000X0*%
%ADD30R,1.778000X0.419100*%
%ADD31RoundRect,0.250000X-0.625000X0.375000X-0.625000X-0.375000X0.625000X-0.375000X0.625000X0.375000X0*%
%ADD32RoundRect,0.175000X-0.175000X-0.325000X0.175000X-0.325000X0.175000X0.325000X-0.175000X0.325000X0*%
%ADD33RoundRect,0.150000X-0.200000X-0.150000X0.200000X-0.150000X0.200000X0.150000X-0.200000X0.150000X0*%
%ADD34RoundRect,0.225000X0.250000X-0.225000X0.250000X0.225000X-0.250000X0.225000X-0.250000X-0.225000X0*%
G04 APERTURE END LIST*
D10*
%TO.C,H11*%
X117475000Y-71437500D03*
%TD*%
%TO.C,H3*%
X88900000Y-33337500D03*
%TD*%
%TO.C,H25*%
X217735904Y-97324959D03*
%TD*%
%TO.C,H5*%
X146050000Y-33337500D03*
%TD*%
%TO.C,H2*%
X69850000Y-52387500D03*
%TD*%
%TO.C,H12*%
X174625000Y-71437500D03*
%TD*%
%TO.C,H20*%
X210343750Y-100012500D03*
%TD*%
%TO.C,H6*%
X165100000Y-52387500D03*
%TD*%
%TO.C,H8*%
X203200000Y-52387500D03*
%TD*%
%TO.C,H10*%
X79375000Y-71437500D03*
%TD*%
%TO.C,H18*%
X192881250Y-95250000D03*
%TD*%
%TO.C,H7*%
X184150000Y-33337500D03*
%TD*%
%TO.C,H13*%
X217757932Y-64564182D03*
%TD*%
%TO.C,H9*%
X36512500Y-71437500D03*
%TD*%
%TO.C,H4*%
X107950000Y-52387500D03*
%TD*%
%TO.C,H16*%
X127000000Y-85725000D03*
%TD*%
%TO.C,H14*%
X61118750Y-95250000D03*
%TD*%
%TO.C,H23*%
X83343750Y-95250000D03*
%TD*%
%TO.C,H24*%
X170656250Y-95250000D03*
%TD*%
%TO.C,H1*%
X50800000Y-33337500D03*
%TD*%
%TO.C,H19*%
X43656250Y-100012500D03*
%TD*%
D11*
%TO.C,SW1*%
X50800000Y-51112500D03*
D12*
X50800000Y-53652500D03*
%TD*%
D13*
%TO.C,C40*%
X62125811Y-81215986D03*
X63085811Y-81215986D03*
%TD*%
D14*
%TO.C,U9*%
X126062500Y-46507500D03*
X126062500Y-44607500D03*
X127937500Y-45557500D03*
%TD*%
D15*
%TO.C,C38*%
X51990908Y-84765000D03*
X51990908Y-85725000D03*
%TD*%
D16*
%TO.C,U8*%
X60518750Y-78212500D03*
X60518750Y-78712500D03*
X60518750Y-79212500D03*
X60518750Y-79712500D03*
X60518750Y-80212500D03*
X60518750Y-80712500D03*
X60518750Y-81212500D03*
X60518750Y-81712500D03*
X60518750Y-82212500D03*
X60518750Y-82712500D03*
X60518750Y-83212500D03*
X60518750Y-83712500D03*
D17*
X59106250Y-85125000D03*
X58606250Y-85125000D03*
X58106250Y-85125000D03*
X57606250Y-85125000D03*
X57106250Y-85125000D03*
X56606250Y-85125000D03*
X56106250Y-85125000D03*
X55606250Y-85125000D03*
X55106250Y-85125000D03*
X54606250Y-85125000D03*
X54106250Y-85125000D03*
X53606250Y-85125000D03*
D16*
X52193750Y-83712500D03*
X52193750Y-83212500D03*
X52193750Y-82712500D03*
X52193750Y-82212500D03*
X52193750Y-81712500D03*
X52193750Y-81212500D03*
X52193750Y-80712500D03*
X52193750Y-80212500D03*
X52193750Y-79712500D03*
X52193750Y-79212500D03*
X52193750Y-78712500D03*
X52193750Y-78212500D03*
D17*
X53606250Y-76800000D03*
X54106250Y-76800000D03*
X54606250Y-76800000D03*
X55106250Y-76800000D03*
X55606250Y-76800000D03*
X56106250Y-76800000D03*
X56606250Y-76800000D03*
X57106250Y-76800000D03*
X57606250Y-76800000D03*
X58106250Y-76800000D03*
X58606250Y-76800000D03*
X59106250Y-76800000D03*
%TD*%
D18*
%TO.C,R30*%
X133860000Y-26193750D03*
X132840000Y-26193750D03*
%TD*%
D19*
%TO.C,R20*%
X56923750Y-75269941D03*
X57943750Y-75269941D03*
%TD*%
D20*
%TO.C,J1*%
X124110000Y-28000000D03*
X129890000Y-28000000D03*
D21*
X123750000Y-29445000D03*
X124550000Y-29445000D03*
D22*
X125750000Y-29445000D03*
X126750000Y-29445000D03*
X127250000Y-29445000D03*
X128250000Y-29445000D03*
D21*
X129450000Y-29445000D03*
X130250000Y-29445000D03*
X130250000Y-29445000D03*
X129450000Y-29445000D03*
D22*
X128750000Y-29445000D03*
X127750000Y-29445000D03*
X126250000Y-29445000D03*
X125250000Y-29445000D03*
D21*
X124550000Y-29445000D03*
X123750000Y-29445000D03*
D23*
X122680000Y-28530000D03*
D24*
X122680000Y-24350000D03*
D23*
X131320000Y-28530000D03*
D24*
X131320000Y-24350000D03*
%TD*%
D15*
%TO.C,C34*%
X62070331Y-82218076D03*
X62070331Y-83178076D03*
%TD*%
D25*
%TO.C,C42*%
X124618750Y-46037500D03*
X124618750Y-45077500D03*
%TD*%
D18*
%TO.C,R25*%
X173147500Y-80801700D03*
X172127500Y-80801700D03*
%TD*%
D15*
%TO.C,C39*%
X63130000Y-82218076D03*
X63130000Y-83178076D03*
%TD*%
D18*
%TO.C,R15*%
X62078750Y-84887500D03*
X61058750Y-84887500D03*
%TD*%
D15*
%TO.C,C31*%
X76993750Y-81276250D03*
X76993750Y-82236250D03*
%TD*%
D25*
%TO.C,C41*%
X129531250Y-46037500D03*
X129531250Y-45077500D03*
%TD*%
D26*
%TO.C,U5*%
X61912500Y-87312500D03*
X61912500Y-88262500D03*
X61912500Y-89212500D03*
X59637500Y-89212500D03*
X59637500Y-87312500D03*
%TD*%
D27*
%TO.C,C44*%
X129861250Y-41462500D03*
X128901250Y-41462500D03*
%TD*%
D25*
%TO.C,C30*%
X63401824Y-89213930D03*
X63401824Y-88253930D03*
%TD*%
D28*
%TO.C,R3*%
X53613691Y-75003826D03*
X53613691Y-73983826D03*
%TD*%
D29*
%TO.C,R17*%
X83343750Y-88390000D03*
X83343750Y-89410000D03*
%TD*%
%TO.C,R21*%
X87312500Y-85215000D03*
X87312500Y-86235000D03*
%TD*%
D15*
%TO.C,C32*%
X166687500Y-81384200D03*
X166687500Y-82344200D03*
%TD*%
D18*
%TO.C,R18*%
X82266250Y-80693750D03*
X81246250Y-80693750D03*
%TD*%
D30*
%TO.C,U6*%
X85524340Y-82657950D03*
X85524340Y-83308190D03*
X85524340Y-83958430D03*
X85524340Y-84608670D03*
X85524340Y-85253830D03*
X85524340Y-85904070D03*
X85524340Y-86554310D03*
X85524340Y-87204550D03*
X79575660Y-87204550D03*
X79575660Y-86554310D03*
X79575660Y-85904070D03*
X79575660Y-85253830D03*
X79575660Y-84608670D03*
X79575660Y-83958430D03*
X79575660Y-83308190D03*
X79575660Y-82657950D03*
%TD*%
D25*
%TO.C,C33*%
X60752074Y-77127788D03*
X60752074Y-76167788D03*
%TD*%
D18*
%TO.C,R1*%
X47057500Y-80968750D03*
X46037500Y-80968750D03*
%TD*%
D28*
%TO.C,R14*%
X58200000Y-89816250D03*
X58200000Y-88796250D03*
%TD*%
D25*
%TO.C,C29*%
X58200000Y-87798750D03*
X58200000Y-86838750D03*
%TD*%
D19*
%TO.C,R29*%
X120140000Y-26193750D03*
X121160000Y-26193750D03*
%TD*%
D18*
%TO.C,R13*%
X62078750Y-85981250D03*
X61058750Y-85981250D03*
%TD*%
D25*
%TO.C,C35*%
X51990908Y-77108536D03*
X51990908Y-76148536D03*
%TD*%
D19*
%TO.C,R27*%
X170146250Y-80801700D03*
X171166250Y-80801700D03*
%TD*%
D29*
%TO.C,R19*%
X76993750Y-85215000D03*
X76993750Y-86235000D03*
%TD*%
D18*
%TO.C,R4*%
X47057500Y-81956250D03*
X46037500Y-81956250D03*
%TD*%
D31*
%TO.C,F3*%
X129381250Y-36887500D03*
X129381250Y-39687500D03*
%TD*%
D18*
%TO.C,R2*%
X47057500Y-78968750D03*
X46037500Y-78968750D03*
%TD*%
D28*
%TO.C,R28*%
X177006250Y-85157500D03*
X177006250Y-84137500D03*
%TD*%
D30*
%TO.C,U7*%
X174424340Y-82765900D03*
X174424340Y-83416140D03*
X174424340Y-84066380D03*
X174424340Y-84716620D03*
X174424340Y-85361780D03*
X174424340Y-86012020D03*
X174424340Y-86662260D03*
X174424340Y-87312500D03*
X168475660Y-87312500D03*
X168475660Y-86662260D03*
X168475660Y-86012020D03*
X168475660Y-85361780D03*
X168475660Y-84716620D03*
X168475660Y-84066380D03*
X168475660Y-83416140D03*
X168475660Y-82765900D03*
%TD*%
D29*
%TO.C,R26*%
X171450000Y-88497950D03*
X171450000Y-89517950D03*
%TD*%
D32*
%TO.C,U11*%
X126000000Y-34087500D03*
D33*
X126000000Y-32387500D03*
X128000000Y-32387500D03*
X128000000Y-34287500D03*
%TD*%
D28*
%TO.C,R24*%
X166687500Y-84931250D03*
X166687500Y-83911250D03*
%TD*%
D34*
%TO.C,C37*%
X62100319Y-76871651D03*
X62100319Y-75321651D03*
%TD*%
D27*
%TO.C,C36*%
X59875000Y-75269941D03*
X58915000Y-75269941D03*
%TD*%
D28*
%TO.C,R16*%
X76993750Y-84363750D03*
X76993750Y-83343750D03*
%TD*%
M02*
